<?xml version="1.0" encoding="utf-8"?>
<!-- Generator: Adobe Illustrator 19.2.1, SVG Export Plug-In . SVG Version: 6.00 Build 0)  -->
<svg version="1.1" id="Layer_1" xmlns="http://www.w3.org/2000/svg" xmlns:xlink="http://www.w3.org/1999/xlink" x="0px" y="0px"
	 width="62.1px" height="89.9px" viewBox="0 0 62.1 89.9" enable-background="new 0 0 62.1 89.9" xml:space="preserve">
<g>
	<g>
		<path d="M31.8,66.8c10.7-3.3,17.5-11.9,21.3-22.1c2.1-5.6,3.4-11.5,4.1-17.5c0.2-1.4-0.1-8.3,1.2-8.9c2.1-1.1,3.4,3.5,3.6,4.7
			c0-0.4,0-0.7,0-1.1c0,0.5,0,1,0,1.4c0-0.6,0-1.3,0-1.9c-0.3,2.1-0.9,3.9-2.2,5.6c-1,1.4-2.2,2.3-2.4,4.2c-0.1,1,0.1,2,0,3
			c0.3-3.3,4-5.5,4.5-9.1c0.2-1.3,0.2-2.7,0.1-4c-0.1-1.8-0.2-4.3-1.9-5.3c-1.8-1.1-1.7-0.4-2.1,1.3c-0.6,2.5-0.5,5.5-0.8,8
			C54.9,41,48.5,58.6,31.8,63.8C31.5,63.8,32,66.7,31.8,66.8L31.8,66.8z"/>
	</g>
</g>
<g>
	<g>
		<path d="M24,50.8c3.1,3.7,11.4,3.5,14.6,0.2c0.3-0.3-0.3-1.7,0-2c-3.3,3.3-11.5,3.5-14.6-0.2C24.3,49.2,23.6,50.4,24,50.8L24,50.8
			z"/>
	</g>
</g>
<path fill-rule="evenodd" clip-rule="evenodd" fill="#231F20" stroke="#231F20" stroke-width="0.216" stroke-miterlimit="2.4142" d="
	M29.8,47.6c-3.3-1.7-4.5,0-7.2,0.7c-0.2,0.1-0.3,0,0-0.1c2.7-1,4.2-4.7,7.8-2.3c0.5,0.3,0.7,1,1.4,0.2c3.5-3.9,6.1,1.4,8.9,1.5
	c0.3,0,0.1,0.2,0,0.2c-3,0.4-4.8-2.4-8.5-0.1C31.3,48.4,30.8,48.1,29.8,47.6L29.8,47.6z"/>
<path fill-rule="evenodd" clip-rule="evenodd" fill="#231F20" stroke="#231F20" stroke-width="0.216" stroke-miterlimit="2.4142" d="
	M28.6,37.4c-0.5,0-1.1,0.2-1.5-0.3c-0.6-0.5-0.4-1.1,0.4-0.8c0.7,0.2,1.5,0.8,2.1,1.3c0.1,0.1,0.1,0.1,0,0.1
	C29.3,37.6,28.9,37.5,28.6,37.4L28.6,37.4z"/>
<g>
	<g>
		<path d="M56.2,4.1c-0.4,7.5-3.3,13.7-7.4,19.7c-0.2,0.2,0.2,1.4,0,1.5c5.7-3.5,10-8.3,13.3-14.1c0.2-0.4-0.2-1.1,0-1.5
			c-3.3,5.8-7.6,10.5-13.3,14.1c0,0.5,0,1,0,1.5c4.1-6.1,7-12.3,7.4-19.8C56.2,5.1,56.1,4.4,56.2,4.1L56.2,4.1z"/>
	</g>
</g>
<g>
	<g>
		<path d="M31.8,63.8C15.1,58.6,8.7,41,6.5,25.1c-0.3-2,0.1-10.4-2.5-9.8c-2,0.5-2.3,3.9-2.4,5.5c-0.1,1.1-0.1,2.4,0,3.5
			c0.4,3.9,4.3,6.2,4.6,9.8c-0.1-1,0.1-2,0-3c-0.2-1.8-1.4-2.7-2.4-4.2c-1.2-1.7-1.9-3.5-2.2-5.6c0,0.6,0,1.3,0,1.9c0-0.5,0-1,0-1.4
			c0,0.4,0,0.7,0,1.1c0.2-1.4,1.3-5.6,3.6-4.7c1.1,0.4,1.1,8,1.2,8.9c0.8,5.9,2,11.9,4.1,17.5c3.8,10.2,10.7,18.8,21.3,22.1
			C31.6,66.7,32.1,63.8,31.8,63.8L31.8,63.8z"/>
	</g>
</g>
<g>
	<g>
		<path d="M3.4,8.5c0.6,4.7,4,9.9,8.3,11.9c-0.1,0,0-1.3,0-1.5c-0.1-4.4-1.5-8.6-1.6-13c0,0.4,0,1,0,1.4c0.1,4.4,1.5,8.6,1.6,13
			c0-0.5,0-1,0-1.5C7.4,16.9,4,11.7,3.4,7C3.4,7.5,3.3,8,3.4,8.5L3.4,8.5z"/>
	</g>
</g>
<g>
	<g>
		<path d="M17.1,2.3c0.1,5.4,3.1,9.4,6.6,13.2c0-0.5,0-1,0-1.5c-5.3-3.1-14.5-6.9-15-14c0,0.4,0,1,0,1.4c0.5,7.1,9.6,11,15,14.1
			c-0.2-0.1,0.2-1.3,0-1.5c-3.4-3.7-6.6-7.5-6.6-12.8C17.2,0.7,17.1,2.1,17.1,2.3L17.1,2.3z"/>
	</g>
</g>
<path fill-rule="evenodd" clip-rule="evenodd" fill="#231F20" stroke="#231F20" stroke-width="0.216" stroke-miterlimit="2.4142" d="
	M34.8,37.4c0.5,0,1.1,0.2,1.5-0.3c0.6-0.5,0.4-1.1-0.4-0.8c-0.7,0.2-1.5,0.8-2.1,1.3c-0.1,0.1-0.1,0.1,0,0.1
	C34.1,37.6,34.6,37.5,34.8,37.4L34.8,37.4z"/>
<path fill-rule="evenodd" clip-rule="evenodd" fill="#231F20" stroke="#231F20" stroke-width="0.216" stroke-miterlimit="2.4142" d="
	M31.2,38.5c0.6,0,1.1-0.2,1.7-0.4c0.2-0.1,0.3-0.1,0.1,0.1c-0.5,0.5-1.2,0.8-1.8,0.7C30.8,38.9,30.8,38.5,31.2,38.5L31.2,38.5z"/>
<g>
	<g>
		<path d="M23.1,47.8c0.4,3.8,0.6,7.6,0.6,11.4c0,6.2-0.3,13.3-3.4,18.9c-0.1,0.1,0.2,0.4,0.3,0.2c3.1-5.5,3.4-12.3,3.5-18.4
			c0.1-3.9-0.1-7.9-0.6-11.8C23.5,47.9,23.1,47.5,23.1,47.8L23.1,47.8z"/>
	</g>
	<g>
		<path fill-rule="evenodd" clip-rule="evenodd" fill="#FFFFFF" d="M1.3,47l8.8-8.7l11.7-0.6l10,5.1c0,0-2.8,3.4-10.4-1.2l-8.6,0.1
			l-3.6,4.6L1.3,47z"/>
		<path d="M1.1,46.9c0,0,8.2-8.3,8.9-8.7c0.7-0.3,11.2-0.7,11.7-0.6c0.5,0.1,10.4,5.1,10.4,5.1L32,42.9c0,0-1.2,1.4-3.8,1.3l0,0
			c-1.6,0-3.9-0.6-6.8-2.4l0,0L13,42l-3.6,4.5l-0.3-0.3l3.7-4.7l8.8-0.1l0.1,0c2.9,1.7,5,2.3,6.6,2.3l0,0c1.3,0,2.1-0.3,2.7-0.5l0,0
			c0.3-0.1,0.5-0.3,0.6-0.4l0,0c0,0-9-4.7-9.7-4.9c-0.7-0.2-10.8,0.3-11.6,0.6c-0.8,0.3-8.7,8.7-8.7,8.7L1.1,46.9L1.1,46.9z"/>
	</g>
	<g>
		<path fill-rule="evenodd" clip-rule="evenodd" fill="#FFFFFF" d="M1.6,48.4l10.7-9.1l11.1,3.7l8.9,8.6c0,0-1.1,3.7-10.9-4.9
			l-8.6-1.7l-3.6,4.6L1.6,48.4z"/>
		<path d="M30.8,52.5c-1.5-0.1-4.3-1.2-9.5-5.7l0,0l-8.4-1.7l-3.6,4.5L9,49.3l3.7-4.7l8.8,1.8l0,0c5.1,4.5,7.9,5.6,9.2,5.7l0,0
			c0.6,0,0.9-0.2,1.1-0.3l0,0c0.1-0.1,0.1-0.1,0.2-0.2l0,0l-8.8-8.4c0,0-9.8-3.7-10.9-3.6c-1,0-10.6,9-10.6,9s-0.1-0.1,0.1-0.4
			c0.1-0.2,9.3-8.9,10.6-9c1.2-0.1,11.2,3.5,11.2,3.5l9,8.7l0,0.1C32.5,51.6,32.2,52.6,30.8,52.5L30.8,52.5
			C30.8,52.5,30.8,52.5,30.8,52.5L30.8,52.5z"/>
	</g>
	<g>
		<path fill-rule="evenodd" clip-rule="evenodd" fill="#FFFFFF" d="M1.7,52.5l10.7-9.1l9.5,5l7.2,7.8c0,0-2.8,2.7-8.9-4.2l-7.3-3
			l-3.6,4.6L1.7,52.5z"/>
		<path d="M20.1,52.2L13,49.3l-3.5,4.5l-0.3-0.3l3.7-4.7l7.5,3l0,0c3.4,3.8,5.7,4.6,7,4.7l0,0c0.6,0,0.9-0.1,1.2-0.2l0,0
			c0.1,0,0.1-0.1,0.2-0.1l0,0l-7-7.6l-9.3-4.9l-10.6,9l0,0l0.5-0.6c0,0,9.1-8.8,10-8.9c0.9-0.1,9.6,5.1,9.6,5.1l7.4,8l-0.2,0.1
			c0,0-0.6,0.6-1.9,0.6l0,0C25.9,56.9,23.5,56,20.1,52.2L20.1,52.2z"/>
	</g>
	<g>
		<path fill-rule="evenodd" clip-rule="evenodd" fill="#FFFFFF" d="M1.7,60.1l10.1-8.7l7.9,4l5,5.4c0,0-2.8,2.3-7.1-2.8l-5.6-1.5
			c0,0-3.3,4-2.7,6.3c0.3,1.2,2.3,3,4.3,5.2L1.7,60.1z"/>
		<path d="M9,62.9c-0.1-0.2-0.1-0.5-0.1-0.8l0,0c0.1-2.5,2.8-5.7,2.8-5.8l0,0l0.1-0.1l5.8,1.5l0,0.1c2.2,2.6,3.9,3.2,5.1,3.3l0,0
			c0.6,0,1-0.1,1.3-0.2l0,0c0.1,0,0.2-0.1,0.2-0.1l0,0l-4.7-5.2l-7.7-3.9l-10,8.6v0L3,59.1c0,0,8.1-7.8,8.8-7.8
			c1.2,0.4,7.9,3.9,7.9,3.9l5.1,5.6L24.7,61c0,0-0.7,0.6-2,0.6l0,0c-1.3,0-3.2-0.7-5.4-3.4l0,0L12,56.8c-0.5,0.6-2.6,3.4-2.6,5.4
			l0,0c0,0.2,0,0.4,0.1,0.6l0,0c0.2,1.1,2.3,2.9,4.2,5.1l0,0l-0.3,0.3C11.4,66,9.4,64.3,9,62.9L9,62.9z"/>
	</g>
	<g display="none">
		<path display="inline" fill-rule="evenodd" clip-rule="evenodd" fill="#FFFFFF" d="M3.8,56.9L1.3,47c0,0-2.1,10.1-0.4,13.9
			C2.5,64.8,9,77.9,9,77.9L3.8,56.9z"/>
		<path display="inline" d="M0.7,61.1C0.1,59.7,0,57.8,0,55.7l0,0C0.1,51.6,1.1,47,1.1,47l0,0l0.1-0.1l0.4,0.2c0,0-0.9,4.5-1.1,8.7
			l0,0c-0.1,2,0.1,3.9,0.6,5.1l0,0c1.7,3.8,8.2,16.9,8.2,16.9l0,0l-0.3-0.2c0,0,0-0.1-0.1-0.2C8.1,76,2.2,64.6,0.7,61.1L0.7,61.1z"
			/>
	</g>
	<path d="M20.3,78.1c0,0-0.4,0.9-0.3,2.4c0,1.9,1.7,8.6,1.7,8.6s0-0.4-0.3-1.6c-0.2-1.2-1.5-7.7-0.8-9.2
		C20.7,77.7,20.3,78.1,20.3,78.1z"/>
	<path d="M9.4,81.4c-0.1,1.7-1.1,2.4,1,8.5c-0.2-1.4-0.9-4.3-0.9-5.5c0-1.2,0.7-4.3,0.4-5.1c-0.3-0.7-0.9-2-0.9-2S8.8,77,8.8,77.4
		C8.9,77.7,9.7,78.5,9.4,81.4z"/>
	<g>
		<path d="M11.9,50.7c0.8,0.7,1.7,1.4,2.7,1.8c0.4,0.2,0.8,0.3,1.2,0.2c0.6-0.1,1.1-1.2,1.3-1.7c0-0.1-0.2-0.3-0.2-0.2
			c-0.2,0.5-0.6,0.9-0.9,1.3c-0.6,0.6-1.3,0.2-1.9-0.1c-0.8-0.4-1.5-1-2.1-1.5C11.9,50.4,11.8,50.5,11.9,50.7L11.9,50.7z"/>
	</g>
</g>
</svg>
