<?xml version="1.0" encoding="utf-8"?>
<!-- Generator: Adobe Illustrator 19.2.1, SVG Export Plug-In . SVG Version: 6.00 Build 0)  -->
<svg version="1.1" id="Layer_1" xmlns="http://www.w3.org/2000/svg" xmlns:xlink="http://www.w3.org/1999/xlink" x="0px" y="0px"
	 width="62px" height="93.9px" viewBox="0 0 62 93.9" enable-background="new 0 0 62 93.9" xml:space="preserve">
<g>
	<g>
		<path d="M30.5,65.3C41,62,47.7,53.4,51.5,43.3c2-5.4,3.2-11,3.9-16.7c0.2-1.4,0-8.3,1.2-8.7c2.2-0.9,3.3,3.2,3.5,4.6
			c0-0.4,0-0.7,0-1.1c0,0.5,0,0.9,0,1.4c0-0.6,0-1.3,0-1.9c-0.3,2.1-0.9,3.8-2.1,5.5c-1,1.4-2.2,2.3-2.4,4.1c-0.1,1,0.1,2,0,3
			c0.3-3.3,3.9-5.4,4.4-8.9c0.2-1.3,0.2-2.6,0.1-3.9c-0.1-1.8-0.1-4.2-1.9-5.2c-3.2-1.8-2.5,6.1-2.8,8.3c-2,15.8-8.2,33.5-24.9,38.6
			C30.2,62.4,30.7,65.2,30.5,65.3L30.5,65.3z"/>
	</g>
</g>
<g>
	<g>
		<path d="M22.9,49.7c3,3.6,11.1,3.5,14.3,0.2c0.3-0.3-0.3-1.7,0-2c-3.2,3.3-11.3,3.4-14.3-0.2C23.2,48,22.5,49.3,22.9,49.7
			L22.9,49.7z"/>
	</g>
</g>
<path fill-rule="evenodd" clip-rule="evenodd" fill="#231F20" stroke="#231F20" stroke-width="0.216" stroke-miterlimit="2.4142" d="
	M28.6,46.5c-3.3-1.7-4.4,0-7,0.7c-0.2,0.1-0.3,0,0-0.1c2.6-1,4.1-4.6,7.7-2.2c0.4,0.3,0.7,1,1.4,0.2c3.4-3.8,6,1.4,8.7,1.5
	c0.3,0,0.1,0.2,0,0.2c-2.9,0.4-4.6-2.3-8.3-0.1C30,47.3,29.5,47,28.6,46.5L28.6,46.5z"/>
<path fill-rule="evenodd" clip-rule="evenodd" fill="#231F20" stroke="#231F20" stroke-width="0.216" stroke-miterlimit="2.4142" d="
	M27.4,36.5c-0.5,0-1,0.2-1.5-0.2c-0.5-0.5-0.4-1.1,0.4-0.8c0.7,0.2,1.4,0.8,2.1,1.3c0.1,0.1,0.1,0.1,0,0.1
	C28.1,36.8,27.6,36.6,27.4,36.5L27.4,36.5z"/>
<g>
	<g>
		<path d="M54.3,4c-0.4,7.3-3.2,13.3-7.3,19.3c-0.2,0.2,0.2,1.4,0,1.5c5.6-3.5,9.7-8.1,13-13.7c0.2-0.4-0.2-1.1,0-1.5
			c-3.2,5.7-7.4,10.3-13,13.7c0,0.5,0,1,0,1.5c4.1-6,6.9-12,7.3-19.3C54.3,5,54.3,4.3,54.3,4L54.3,4z"/>
	</g>
</g>
<g>
	<g>
		<path d="M30.5,62.3C13.8,57.1,7.7,39.4,5.6,23.6c-0.2-1.9,0.3-9.3-2.3-8.7c-2,0.5-2.2,3.7-2.3,5.4c-0.1,1.1-0.1,2.4,0,3.5
			c0.4,3.8,4.2,6.1,4.5,9.6c-0.1-1,0.1-2,0-3c-0.2-1.8-1.4-2.6-2.4-4.1c-1.2-1.7-1.9-3.4-2.1-5.5c0,0.6,0,1.3,0,1.9
			c0-0.5,0-0.9,0-1.4c0,0.4,0,0.7,0,1.1c0.2-1.5,1.2-5.4,3.5-4.6c1,0.4,0.9,6.8,1,7.8c0.7,6,1.9,11.9,4,17.6
			C13.2,53.4,20,62,30.5,65.3C30.2,65.2,30.8,62.4,30.5,62.3L30.5,62.3z"/>
	</g>
</g>
<g>
	<g>
		<path d="M2.7,8.3C3.3,12.9,6.6,18,10.9,20c-0.1,0,0-1.3,0-1.5c-0.1-4.3-1.4-8.4-1.6-12.7c0,0.4,0,1,0,1.4
			c0.1,4.3,1.4,8.4,1.6,12.7c0-0.5,0-1,0-1.5c-4.3-2-7.6-7.1-8.2-11.6C2.8,7.3,2.7,7.8,2.7,8.3L2.7,8.3z"/>
	</g>
</g>
<g>
	<g>
		<path d="M16.2,2.3c0.1,5.3,3,9.1,6.5,12.9c0-0.5,0-1,0-1.5C17.5,10.7,8.5,6.9,8,0c0,0.4,0,1,0,1.4c0.5,7,9.4,10.7,14.6,13.7
			c-0.2-0.1,0.2-1.3,0-1.5c-3.3-3.6-6.4-7.4-6.5-12.5C16.2,0.7,16.2,2.1,16.2,2.3L16.2,2.3z"/>
	</g>
</g>
<g>
	
		<path fill-rule="evenodd" clip-rule="evenodd" fill="#231F20" stroke="#231F20" stroke-width="0.216" stroke-miterlimit="2.4142" d="
		M33.5,36.5c0.5,0,1,0.2,1.5-0.2c0.5-0.5,0.4-1.1-0.4-0.8c-0.7,0.2-1.4,0.8-2.1,1.3c-0.1,0.1-0.1,0.1,0,0.1
		C32.8,36.8,33.2,36.6,33.5,36.5L33.5,36.5z"/>
	
		<path fill-rule="evenodd" clip-rule="evenodd" fill="#231F20" stroke="#231F20" stroke-width="0.216" stroke-miterlimit="2.4142" d="
		M29.9,37.7c0.5,0,1.1-0.2,1.7-0.4c0.2-0.1,0.3-0.1,0.1,0.1c-0.5,0.5-1.2,0.8-1.8,0.7C29.5,38,29.5,37.7,29.9,37.7L29.9,37.7z"/>
	<path fill="#F8F8F8" d="M4.7,24.4c0,0,2,1.3,0,8l-2,3L1,34.3L4.7,24.4z"/>
	<polygon fill="#F8F8F8" points="7.6,32 5.8,36.1 8,40.4 9.7,35 	"/>
	<polygon fill="#F8F8F8" points="8.5,42.1 11.9,40 13.1,43.2 10.6,44.8 10.4,48.1 7.5,45.5 7.8,43.1 	"/>
	<polygon fill="#F8F8F8" points="15.3,46.2 12.6,48 11.8,51.6 14,53.2 14.2,50.1 16.2,49.1 	"/>
	<g>
		<g>
			<path d="M14.4,91.8c1.9-3.9,5-5.6,6.4-9.8c0.1-0.4-0.4,0-0.5,0.2c-1.6,4-5.5,6.4-6.8,10.5C13.1,94.1,13.6,93.6,14.4,91.8z"/>
		</g>
		<g>
			<g>
				<path d="M4.7,24.4c1.3,3.1,0,6.2-0.6,9.3c-0.5,2.6-0.7,6,0,8.6c0,0,0,0,0,0c0.1-3.6-0.2-6.9,0.7-10.5c0.6-2.4,1.4-5.2-0.1-7.5
					C4.8,24.2,4.7,24.4,4.7,24.4L4.7,24.4z"/>
			</g>
			<g>
				<path d="M4.7,24.3C2.6,28.1,1,33,0.4,37.3c-0.7,5.2-0.7,11.2,0.8,16.2c1.7,5.4,4.1,10.6,6.2,15.9c2.4,6.1-0.1,13.4-2.7,18.9
					c-0.2,0.5,0.5-0.5,0.6-0.8C8,82.3,9.6,77,8.7,71.2c-0.8-5-3.9-9.7-5.8-14.4c-0.9-2.3-1.8-4.6-2.2-7c-0.6-3.3-0.4-6.6-0.1-9.9
					C0.8,34.6,2.5,29.1,4.7,24.3C4.8,24.3,4.7,24.3,4.7,24.3L4.7,24.3z"/>
			</g>
			<g>
				<path d="M10.6,26c-1.8,3.5-3.8,6.8-5.2,10.5c-1.2,3.3-2.3,7.8-1.4,11.2c0,0.1,0.2-0.1,0.2-0.1c0-4.3,0.3-8.3,1.9-12.4
					C7.4,32,9.1,29.1,10.6,26C10.7,26,10.6,26,10.6,26L10.6,26z"/>
			</g>
			<g>
				<path d="M10.6,25.7c2,1.5,0.7,4.2,0,6.1c-0.7,2-1.5,4-2,6.1c-1,3.8-1.3,7.7-1.7,11.6c0,0,0.1,0,0.1,0c0.8-4.5,1.1-9,2.4-13.4
					c0.7-2.4,1.8-4.7,2.4-7.1C12,27.6,11.7,26.4,10.6,25.7C10.6,25.7,10.6,25.7,10.6,25.7L10.6,25.7z"/>
			</g>
			<g>
				<path d="M20.5,34.7c-2.2,1.5-4.5,2.8-6.8,4.1c-1.8,1-3.8,1.8-5.2,3.3c-1,1-1.2,2.6-1.3,3.9c-0.2,2.4-0.5,5.3,0.1,7.7
					c0,0.1,0.1-0.1,0.1-0.1c0-2-0.1-4-0.1-6c0-1.1,0.1-2.2,0.3-3.3c0.4-1.9,2-2.9,3.5-3.8C14.3,38.7,17.6,37,20.5,34.7
					C20.5,34.7,20.5,34.7,20.5,34.7L20.5,34.7z"/>
			</g>
			<g>
				<path d="M20.5,34.7c0.1,2.2-0.3,4.1-2.4,5.4c-0.9,0.5-1.7,1.1-2.5,1.6c-1.6,1-3.3,2-4.9,3c0,0-0.1,0.1,0,0.1
					c2.7-1.2,5.2-3.1,7.7-4.7C20.3,38.9,21.2,36.9,20.5,34.7C20.5,34.7,20.5,34.7,20.5,34.7L20.5,34.7z"/>
			</g>
			<g>
				<path d="M10.7,43.8c-0.5,3.4-0.3,7.2,0.1,10.6c0,0.1,0.1,0,0.1-0.1C11.2,50.9,10.9,47.2,10.7,43.8
					C10.8,43.7,10.7,43.8,10.7,43.8L10.7,43.8z"/>
			</g>
			<g>
				<g>
					<path d="M22.8,40.9c0.1,0.2-9,5.8-9.6,6.2c-0.6,0.4-1.1,0.8-1,0.9c0.1,0.1,0.6-0.2,1.2-0.6C14.1,47,23,41.1,22.8,40.9z"/>
				</g>
			</g>
			<g>
				<path d="M14.2,50.2c-0.2,1.3-0.1,2.7-0.2,4c-0.1,1.8-0.5,3.4-0.9,5.1c0,0.1,0.1,0,0.2,0c0.7-1.3,0.9-2.9,1-4.3
					C14.4,53.5,14.8,51.4,14.2,50.2C14.2,50.1,14.2,50.2,14.2,50.2L14.2,50.2z"/>
			</g>
			<g>
				<path d="M22.8,41.2c-1.5,4.2-5.7,7-9.3,9.2c0,0-0.1,0.1,0,0.1C17.4,48.9,21.5,45.3,22.8,41.2C22.9,41.2,22.8,41.2,22.8,41.2
					L22.8,41.2z"/>
			</g>
			<g>
				<path d="M14,54.6c1.4,3.7,3,7.3,4.4,11c2.5,6.2,4.5,12.5,0.8,18.7c-0.1,0.1,0,0.2,0.1,0.1c4.3-4.5,2.5-11.7,0.6-16.9
					c-1.7-4.5-3.7-8.8-5.7-13.1C14.1,54.3,13.9,54.6,14,54.6L14,54.6z"/>
			</g>
		</g>
		<path d="M12.3,48c-1,3.3-1.9,6.7-1.8,10c0,0.1,0.1-0.1,0.1-0.1c0.6-3.5,1.3-6.9,2-10.3L12.3,48z"/>
	</g>
</g>
<g>
	<path fill="#F8F8F8" d="M57.3,24.8c0,0-2,1.3,0,8l2,3l1.7-1.1L57.3,24.8z"/>
	<polygon fill="#F8F8F8" points="54.4,32.4 56.2,36.5 54,40.8 52.3,35.4 	"/>
	<polygon fill="#F8F8F8" points="53.5,42.5 50.1,40.4 48.9,43.6 51.4,45.2 51.6,48.5 54.5,45.9 54.2,43.5 	"/>
	<polygon fill="#F8F8F8" points="46.7,46.6 49.4,48.4 50.2,52 48,53.6 47.8,50.6 45.8,49.5 	"/>
	<g>
		<g>
			<path d="M47.6,92.2c-1.9-3.9-5-5.6-6.4-9.8c-0.1-0.4,0.4,0,0.5,0.2c1.6,4,5.5,6.4,6.8,10.5C48.9,94.5,48.4,94,47.6,92.2z"/>
		</g>
		<g>
			<g>
				<path d="M57.3,24.8c-1.3,3.1,0,6.2,0.6,9.3c0.5,2.6,0.7,6,0,8.6c0,0,0,0,0,0c-0.1-3.6,0.2-6.9-0.7-10.5
					c-0.6-2.4-1.4-5.2,0.1-7.5C57.2,24.6,57.3,24.8,57.3,24.8L57.3,24.8z"/>
			</g>
			<g>
				<path d="M57.3,24.7c2.2,3.8,3.7,8.7,4.3,13c0.7,5.2,0.7,11.2-0.8,16.2c-1.7,5.4-4.1,10.6-6.2,15.9c-2.4,6.1,0.1,13.4,2.7,18.9
					c0.2,0.5-0.5-0.5-0.6-0.8c-2.6-5.2-4.3-10.5-3.4-16.3c0.8-5,3.9-9.7,5.8-14.4c0.9-2.3,1.8-4.6,2.2-7c0.6-3.3,0.4-6.6,0.1-9.9
					C61.2,35,59.5,29.5,57.3,24.7C57.2,24.7,57.3,24.7,57.3,24.7L57.3,24.7z"/>
			</g>
			<g>
				<path d="M51.4,26.4c1.8,3.5,3.8,6.8,5.2,10.5c1.2,3.3,2.3,7.8,1.4,11.2c0,0.1-0.2-0.1-0.2-0.1c0-4.3-0.3-8.3-1.9-12.4
					C54.6,32.4,52.9,29.5,51.4,26.4C51.3,26.4,51.4,26.4,51.4,26.4L51.4,26.4z"/>
			</g>
			<g>
				<path d="M51.4,26.1c-2,1.5-0.7,4.2,0,6.1c0.7,2,1.5,4,2,6.1c1,3.8,1.3,7.7,1.7,11.6c0,0-0.1,0-0.1,0c-0.8-4.5-1.1-9-2.4-13.4
					c-0.7-2.4-1.8-4.7-2.4-7.1C50,28,50.3,26.8,51.4,26.1C51.4,26.1,51.4,26.1,51.4,26.1L51.4,26.1z"/>
			</g>
			<g>
				<path d="M41.5,35.1c2.2,1.5,4.5,2.8,6.8,4.1c1.8,1,3.8,1.8,5.2,3.3c1,1,1.2,2.6,1.3,3.9c0.2,2.4,0.5,5.3-0.1,7.7
					c0,0.1-0.1-0.1-0.1-0.1c0-2,0.1-4,0.1-6c0-1.1-0.1-2.2-0.3-3.3c-0.4-1.9-2-2.9-3.5-3.8C47.7,39.1,44.4,37.4,41.5,35.1
					C41.5,35.1,41.5,35.1,41.5,35.1L41.5,35.1z"/>
			</g>
			<g>
				<path d="M41.5,35.1c-0.1,2.2,0.3,4.1,2.4,5.4c0.9,0.5,1.7,1.1,2.5,1.6c1.6,1,3.3,2,4.9,3c0,0,0.1,0.1,0,0.1
					c-2.7-1.2-5.2-3.1-7.7-4.7C41.7,39.3,40.8,37.3,41.5,35.1C41.5,35.1,41.5,35.1,41.5,35.1L41.5,35.1z"/>
			</g>
			<g>
				<path d="M51.3,44.2c0.5,3.4,0.3,7.2-0.1,10.6c0,0.1-0.1,0-0.1-0.1C50.8,51.3,51.1,47.6,51.3,44.2C51.2,44.1,51.3,44.2,51.3,44.2
					L51.3,44.2z"/>
			</g>
			<g>
				<g>
					<path d="M39.2,41.3c-0.1,0.2,9,5.8,9.6,6.2c0.6,0.4,1.1,0.8,1,0.9c-0.1,0.1-0.6-0.2-1.2-0.6C47.9,47.5,39,41.5,39.2,41.3z"/>
				</g>
			</g>
			<g>
				<path d="M47.8,50.6c0.2,1.3,0.1,2.7,0.2,4c0.1,1.8,0.5,3.4,0.9,5.1c0,0.1-0.1,0-0.2,0c-0.7-1.3-0.9-2.9-1-4.3
					C47.6,53.9,47.2,51.8,47.8,50.6C47.8,50.5,47.8,50.6,47.8,50.6L47.8,50.6z"/>
			</g>
			<g>
				<path d="M39.2,41.6c1.5,4.2,5.7,7,9.3,9.2c0,0,0.1,0.1,0,0.1C44.6,49.3,40.5,45.7,39.2,41.6C39.1,41.6,39.2,41.6,39.2,41.6
					L39.2,41.6z"/>
			</g>
			<g>
				<path d="M48,55c-1.4,3.7-3,7.3-4.4,11c-2.5,6.2-4.5,12.5-0.8,18.7c0.1,0.1,0,0.2-0.1,0.1c-4.3-4.5-2.5-11.7-0.6-16.9
					c1.7-4.5,3.7-8.8,5.7-13.1C47.9,54.7,48.1,55,48,55L48,55z"/>
			</g>
		</g>
		<path d="M49.7,48.5c1,3.3,1.9,6.7,1.8,10c0,0.1-0.1-0.1-0.1-0.1c-0.6-3.5-1.3-6.9-2-10.3L49.7,48.5z"/>
	</g>
</g>
</svg>
