<?xml version="1.0" encoding="utf-8"?>
<!-- Generator: Adobe Illustrator 19.2.1, SVG Export Plug-In . SVG Version: 6.00 Build 0)  -->
<svg version="1.1" id="Layer_1" xmlns="http://www.w3.org/2000/svg" xmlns:xlink="http://www.w3.org/1999/xlink" x="0px" y="0px"
	 width="106px" height="50px" viewBox="0 0 106 50" enable-background="new 0 0 106 50" xml:space="preserve">
<g>
	<g>
		<path d="M104,16.7c-4.5,2.2-6.6,5.9-11.4,7.5c-0.5,0.2,0.1-0.5,0.3-0.6c4.7-1.8,7.4-6.3,12.2-7.9C106.7,15.2,106.1,15.8,104,16.7z
			"/>
	</g>
	<g>
		<g>
			<path d="M25.7,5.5c3.6,1.5,7.2,0,10.8-0.7c3.1-0.6,7-0.8,10,0c0,0,0,0,0,0c-4.2,0.1-8-0.2-12.1,0.8c-2.8,0.7-6,1.6-8.7-0.1
				C25.5,5.5,25.6,5.4,25.7,5.5L25.7,5.5z"/>
		</g>
		<g>
			<path d="M25.6,5.5C30,3,35.7,1.2,40.7,0.5c6-0.8,13-0.8,18.8,0.9c6.3,1.9,12.3,4.8,18.4,7.2c7,2.8,15.5-0.2,21.9-3.2
				c0.5-0.3-0.6,0.5-0.9,0.7c-6,3-12.2,5-18.9,3.9c-5.8-0.9-11.3-4.6-16.7-6.8c-2.7-1.1-5.3-2.1-8.2-2.6c-3.9-0.6-7.7-0.4-11.6-0.2
				C37.5,1,31.2,2.9,25.6,5.5C25.6,5.6,25.6,5.5,25.6,5.5L25.6,5.5z"/>
		</g>
		<g>
			<path d="M27.6,12.3c4-2.1,7.9-4.5,12.2-6c3.8-1.4,9-2.7,13-1.6c0.1,0-0.1,0.2-0.2,0.2c-5,0-9.7,0.4-14.4,2.2
				C34.5,8.6,31.1,10.6,27.6,12.3C27.5,12.4,27.6,12.3,27.6,12.3L27.6,12.3z"/>
		</g>
		<g>
			<path d="M27.3,12.3c1.8,2.3,4.9,0.8,7.1,0c2.3-0.9,4.7-1.7,7.1-2.4c4.4-1.2,8.9-1.5,13.5-1.9c0,0,0,0.1,0,0.1
				C49.5,9,44.3,9.3,39.2,10.9c-2.8,0.8-5.5,2.1-8.3,2.8C29.4,14,28,13.6,27.3,12.3C27.2,12.3,27.2,12.3,27.3,12.3L27.3,12.3z"/>
		</g>
		<g>
			<path d="M37.6,23.8c1.8-2.5,3.3-5.2,4.8-7.9c1.2-2,2.1-4.4,3.8-6.1c1.1-1.1,3-1.4,4.5-1.5c2.8-0.2,6.1-0.6,8.9,0.1
				c0.1,0-0.1,0.1-0.1,0.1c-2.3,0-4.6-0.2-7-0.1c-1.3,0-2.6,0.1-3.8,0.3c-2.2,0.4-3.4,2.3-4.4,4.1C42.3,16.6,40.3,20.5,37.6,23.8
				C37.7,23.8,37.6,23.8,37.6,23.8L37.6,23.8z"/>
		</g>
		<g>
			<path d="M37.7,23.8c2.5,0.1,4.7-0.3,6.2-2.8c0.6-1,1.2-2,1.9-2.9c1.2-1.9,2.3-3.8,3.5-5.6c0,0,0.2-0.1,0.1,0
				c-1.4,3.1-3.6,6-5.4,8.9C42.6,23.6,40.2,24.7,37.7,23.8C37.6,23.8,37.7,23.8,37.7,23.8L37.7,23.8z"/>
		</g>
		<g>
			<path d="M48.2,12.4c3.9-0.5,8.3-0.3,12.3,0.1c0.1,0,0,0.1-0.1,0.1C56.4,13,52.2,12.6,48.2,12.4C48.2,12.5,48.2,12.4,48.2,12.4
				L48.2,12.4z"/>
		</g>
		<g>
			<g>
				<path d="M44.8,26.5c0.2,0.2,6.7-10.4,7.2-11.1c0.5-0.7,1-1.2,1.1-1.2c0.1,0.1-0.2,0.7-0.7,1.4C52,16.4,45,26.7,44.8,26.5z"/>
			</g>
		</g>
		<g>
			<path d="M55.6,16.5c1.5-0.2,3.1-0.1,4.6-0.3c2-0.2,3.9-0.6,5.9-1c0.2,0,0,0.2-0.1,0.2c-1.5,0.8-3.3,1-5,1.2
				C59.5,16.8,57.1,17.2,55.6,16.5C55.6,16.5,55.6,16.5,55.6,16.5L55.6,16.5z"/>
		</g>
		<g>
			<path d="M45.2,26.5c4.9-1.8,8.1-6.6,10.7-10.8c0,0,0.1-0.1,0.1,0C54.2,20.2,50,25,45.2,26.5C45.2,26.6,45.2,26.5,45.2,26.5
				L45.2,26.5z"/>
		</g>
		<g>
			<path d="M60.8,16.2c4.3,1.6,8.5,3.5,12.8,5.1c7.3,2.9,14.5,5.2,21.7,1c0.2-0.1,0.2,0,0.1,0.1c-5.3,5-13.6,2.9-19.7,0.6
				c-5.2-2-10.2-4.3-15.2-6.6C60.5,16.4,60.7,16.2,60.8,16.2L60.8,16.2z"/>
		</g>
	</g>
	<path d="M53.2,14.2C57,13.1,61,12,64.8,12.1c0.1,0-0.1,0.2-0.1,0.2c-4,0.7-8,1.5-12,2.4L53.2,14.2z"/>
</g>
<g>
	<g>
		<path d="M2,33.3c4.5-2.2,6.6-5.9,11.4-7.5c0.5-0.2-0.1,0.5-0.3,0.6c-4.7,1.8-7.4,6.3-12.2,7.9C-0.7,34.8-0.1,34.3,2,33.3z"/>
	</g>
	<g>
		<g>
			<path d="M80.3,44.6c-3.6-1.5-7.2,0-10.8,0.7c-3.1,0.6-7,0.8-10,0c0,0,0,0,0,0c4.2-0.1,8,0.2,12.1-0.8c2.8-0.7,6-1.6,8.7,0.1
				C80.5,44.5,80.4,44.6,80.3,44.6L80.3,44.6z"/>
		</g>
		<g>
			<path d="M80.4,44.5c-4.4,2.5-10.1,4.3-15.1,5c-6,0.8-13,0.8-18.8-0.9c-6.3-1.9-12.3-4.8-18.4-7.2c-7-2.8-15.5,0.2-21.9,3.2
				C5.6,44.8,6.7,44,7,43.8c6-3,12.2-5,18.9-3.9c5.8,0.9,11.3,4.6,16.7,6.8c2.7,1.1,5.3,2.1,8.2,2.6c3.9,0.6,7.7,0.4,11.6,0.2
				C68.5,49.1,74.8,47.1,80.4,44.5C80.4,44.5,80.4,44.5,80.4,44.5L80.4,44.5z"/>
		</g>
		<g>
			<path d="M78.4,37.7c-4,2.1-7.9,4.5-12.2,6c-3.8,1.4-9,2.7-13,1.6c-0.1,0,0.1-0.2,0.2-0.2c5,0,9.7-0.4,14.4-2.2
				C71.5,41.5,74.9,39.5,78.4,37.7C78.5,37.6,78.4,37.7,78.4,37.7L78.4,37.7z"/>
		</g>
		<g>
			<path d="M78.7,37.7c-1.8-2.3-4.9-0.8-7.1,0c-2.3,0.9-4.7,1.7-7.1,2.4c-4.4,1.2-8.9,1.5-13.5,1.9c0,0,0-0.1,0-0.1
				c5.3-0.9,10.5-1.2,15.6-2.8c2.8-0.8,5.5-2.1,8.3-2.8C76.6,36.1,78,36.4,78.7,37.7C78.8,37.7,78.8,37.7,78.7,37.7L78.7,37.7z"/>
		</g>
		<g>
			<path d="M68.4,26.3c-1.8,2.5-3.3,5.2-4.8,7.9c-1.2,2-2.1,4.4-3.8,6.1c-1.1,1.1-3,1.4-4.5,1.5c-2.8,0.2-6.1,0.6-8.9-0.1
				c-0.1,0,0.1-0.1,0.1-0.1c2.3,0,4.6,0.2,7,0.1c1.3,0,2.6-0.1,3.8-0.3c2.2-0.4,3.4-2.3,4.4-4.1C63.7,33.5,65.7,29.6,68.4,26.3
				C68.3,26.2,68.4,26.2,68.4,26.3L68.4,26.3z"/>
		</g>
		<g>
			<path d="M68.3,26.3c-2.5-0.1-4.7,0.3-6.2,2.8c-0.6,1-1.2,2-1.9,2.9c-1.2,1.9-2.3,3.8-3.5,5.6c0,0-0.2,0.1-0.1,0
				c1.4-3.1,3.6-6,5.4-8.9C63.4,26.4,65.8,25.4,68.3,26.3C68.4,26.2,68.3,26.3,68.3,26.3L68.3,26.3z"/>
		</g>
		<g>
			<path d="M57.8,37.6c-3.9,0.5-8.3,0.3-12.3-0.1c-0.1,0,0-0.1,0.1-0.1C49.6,37,53.8,37.4,57.8,37.6C57.8,37.6,57.8,37.6,57.8,37.6
				L57.8,37.6z"/>
		</g>
		<g>
			<g>
				<path d="M61.2,23.5c-0.2-0.2-6.7,10.4-7.2,11.1c-0.5,0.7-1,1.2-1.1,1.2c-0.1-0.1,0.2-0.7,0.7-1.4C54,33.7,61,23.3,61.2,23.5z"/>
			</g>
		</g>
		<g>
			<path d="M50.4,33.6c-1.5,0.2-3.1,0.1-4.6,0.3c-2,0.2-3.9,0.6-5.9,1c-0.2,0,0-0.2,0.1-0.2c1.5-0.8,3.3-1,5-1.2
				C46.5,33.3,48.9,32.9,50.4,33.6C50.4,33.5,50.4,33.6,50.4,33.6L50.4,33.6z"/>
		</g>
		<g>
			<path d="M60.8,23.5c-4.9,1.8-8.1,6.6-10.7,10.8c0,0-0.1,0.1-0.1,0C51.8,29.9,56,25.1,60.8,23.5C60.8,23.5,60.8,23.5,60.8,23.5
				L60.8,23.5z"/>
		</g>
		<g>
			<path d="M45.2,33.8c-4.3-1.6-8.5-3.5-12.8-5.1c-7.3-2.9-14.5-5.2-21.7-1c-0.2,0.1-0.2,0-0.1-0.1c5.3-5,13.6-2.9,19.7-0.6
				c5.2,2,10.2,4.3,15.2,6.6C45.5,33.6,45.3,33.9,45.2,33.8L45.2,33.8z"/>
		</g>
	</g>
	<path d="M52.8,35.8C49,36.9,45,38,41.2,37.9c-0.1,0,0.1-0.2,0.1-0.2c4-0.7,8-1.5,12-2.4L52.8,35.8z"/>
</g>
</svg>
