<?xml version="1.0" encoding="utf-8"?>
<!-- Generator: Adobe Illustrator 19.2.1, SVG Export Plug-In . SVG Version: 6.00 Build 0)  -->
<svg version="1.1" id="Layer_1" xmlns="http://www.w3.org/2000/svg" xmlns:xlink="http://www.w3.org/1999/xlink" x="0px" y="0px"
	 width="72.1px" height="89.6px" viewBox="0 0 72.1 89.6" enable-background="new 0 0 72.1 89.6" xml:space="preserve">
<g>
	<g>
		<path d="M56.3,87.7c-2-4.3-5.6-6.2-7.1-10.9c-0.1-0.4,0.5,0.1,0.6,0.2c1.8,4.4,6,7,7.5,11.6C57.7,90.2,57.2,89.6,56.3,87.7z"/>
	</g>
	<g>
		<g>
			<path d="M67,13.3c-1.4,3.5,0,6.8,0.7,10.2c0.6,2.9,0.8,6.6,0,9.5c0,0,0,0,0,0c-0.1-4,0.2-7.6-0.8-11.5c-0.7-2.7-1.5-5.7,0.1-8.2
				C66.9,13.1,67,13.2,67,13.3L67,13.3z"/>
		</g>
		<g>
			<path d="M66.9,13.2c2.4,4.2,4.1,9.6,4.7,14.3c0.7,5.7,0.8,12.3-0.9,17.9c-1.8,6-4.6,11.7-6.9,17.5c-2.7,6.7,0.2,14.8,3,20.8
				c0.2,0.5-0.5-0.6-0.6-0.8c-2.9-5.7-4.7-11.6-3.7-18c0.9-5.5,4.4-10.7,6.4-15.9c1-2.5,2-5,2.5-7.7c0.6-3.7,0.4-7.3,0.2-11
				C71.2,24.5,69.4,18.5,66.9,13.2C66.9,13.1,66.9,13.2,66.9,13.2L66.9,13.2z"/>
		</g>
		<g>
			<path d="M60.4,15.1c2,3.8,4.2,7.5,5.7,11.6c1.3,3.6,2.6,8.6,1.5,12.4c0,0.1-0.2-0.1-0.2-0.2c0-4.8-0.4-9.2-2.1-13.7
				C64,21.7,62.1,18.4,60.4,15.1C60.4,15,60.4,15,60.4,15.1L60.4,15.1z"/>
		</g>
		<g>
			<path d="M60.4,14.7c-2.2,1.7-0.8,4.6,0,6.7c0.8,2.2,1.6,4.4,2.2,6.7c1.1,4.2,1.4,8.5,1.8,12.8c0,0-0.1,0-0.1,0
				c-0.8-5-1.2-10-2.7-14.8c-0.8-2.6-2-5.2-2.6-7.9C58.9,16.8,59.2,15.5,60.4,14.7C60.4,14.7,60.4,14.7,60.4,14.7L60.4,14.7z"/>
		</g>
		<g>
			<path d="M49.5,24.6c2.4,1.7,5,3.1,7.5,4.5c1.9,1.1,4.2,2,5.8,3.6c1.1,1.1,1.3,2.9,1.4,4.3c0.2,2.7,0.6,5.8-0.1,8.5
				c0,0.1-0.1-0.1-0.1-0.1c0-2.2,0.2-4.4,0.1-6.6c0-1.2-0.1-2.4-0.3-3.6c-0.4-2.1-2.2-3.2-3.9-4.2C56.4,29,52.7,27.2,49.5,24.6
				C49.5,24.6,49.5,24.6,49.5,24.6L49.5,24.6z"/>
		</g>
		<g>
			<path d="M49.6,24.6c-0.1,2.4,0.3,4.5,2.6,5.9c0.9,0.6,1.9,1.2,2.8,1.8c1.8,1.1,3.6,2.2,5.4,3.3c0,0,0.1,0.2,0,0.1
				c-3-1.4-5.7-3.5-8.5-5.2C49.7,29.3,48.7,27.1,49.6,24.6C49.5,24.6,49.6,24.6,49.6,24.6L49.6,24.6z"/>
		</g>
		<g>
			<path d="M60.3,34.7c0.5,3.7,0.3,7.9-0.1,11.7c0,0.1-0.1,0-0.1-0.1C59.7,42.5,60.1,38.5,60.3,34.7C60.3,34.6,60.3,34.7,60.3,34.7
				L60.3,34.7z"/>
		</g>
		<g>
			<g>
				<path d="M46.9,31.4c-0.1,0.2,9.9,6.4,10.6,6.9c0.7,0.5,1.2,0.9,1.1,1c-0.1,0.1-0.7-0.2-1.4-0.6C56.6,38.3,46.8,31.6,46.9,31.4z"
					/>
			</g>
		</g>
		<g>
			<path d="M56.5,41.7c0.2,1.4,0.1,3,0.2,4.4c0.2,1.9,0.6,3.7,1,5.6c0,0.2-0.2,0-0.2-0.1c-0.8-1.4-1-3.2-1.2-4.8
				C56.2,45.4,55.8,43.1,56.5,41.7C56.5,41.7,56.5,41.7,56.5,41.7L56.5,41.7z"/>
		</g>
		<g>
			<path d="M46.9,31.8c1.7,4.7,6.3,7.7,10.3,10.1c0,0,0.1,0.1,0,0.1C53,40.3,48.4,36.3,46.9,31.8C46.9,31.8,46.9,31.8,46.9,31.8
				L46.9,31.8z"/>
		</g>
		<g>
			<path d="M56.7,46.7c-1.5,4.1-3.3,8.1-4.9,12.1c-2.7,6.9-5,13.8-0.9,20.6c0.1,0.2,0,0.2-0.1,0.1c-4.8-5-2.8-13-0.6-18.7
				c1.9-4.9,4.1-9.7,6.3-14.5C56.5,46.3,56.8,46.6,56.7,46.7L56.7,46.7z"/>
		</g>
	</g>
	<path d="M58.6,39.4c1.1,3.7,2.1,7.4,2,11c0,0.1-0.2-0.1-0.2-0.1c-0.6-3.8-1.4-7.6-2.2-11.4L58.6,39.4z"/>
</g>
<g>
	<g>
		<path d="M0.1,51.7C6.8,59.8,15,65.8,25.3,68.1c-0.2,0,0.2-2.9,0-3C15,62.8,6.8,56.8,0.1,48.7C0.6,49.3-0.4,51.1,0.1,51.7L0.1,51.7
			z"/>
	</g>
</g>
<g>
	<g>
		<path d="M24.9,68.1C36.6,64.6,44,55,48.1,43.8c2.2-6,3.5-12.3,4.3-18.6c0.2-1.8-0.2-8.5,1.2-9.4c2.4-1.5,3.8,4.3,3.9,5.6
			c0-1,0-2,0-2.9c-0.1,2.7-0.9,4.9-2.4,7C54,27.1,52.7,28,52.5,30c-0.1,1,0.1,2,0,3c0.4-3.7,4.5-6.2,5-10.3c0.1-1.1,0.1-2.4,0.1-3.5
			c-0.1-1.8-0.4-5.6-2.6-6.2c-2.9-0.8-2.5,9.4-2.9,11.8c-2.5,16.7-9.5,35-27.1,40.4C24.6,65.2,25.2,68.1,24.9,68.1L24.9,68.1z"/>
	</g>
</g>
<g>
	<g>
		<path d="M16.5,51c3.3,4,12.2,3.8,15.8,0.2c0.3-0.3-0.3-1.7,0-2C28.8,52.8,19.8,53,16.5,49C16.8,49.3,16.2,50.6,16.5,51L16.5,51z"
			/>
	</g>
</g>
<path fill-rule="evenodd" clip-rule="evenodd" fill="#231F20" stroke="#231F20" stroke-width="0.216" stroke-miterlimit="2.4142" d="
	M22.8,47.6c-3.6-1.9-4.9,0-7.8,0.8c-0.2,0.1-0.3,0,0-0.1c2.9-1.1,4.5-5,8.5-2.4c0.5,0.3,0.8,1.1,1.5,0.3c3.8-4.2,6.6,1.6,9.6,1.7
	c0.3,0,0.1,0.2,0,0.2c-3.2,0.5-5.1-2.6-9.2-0.1C24.4,48.5,23.8,48.2,22.8,47.6L22.8,47.6z"/>
<path fill-rule="evenodd" clip-rule="evenodd" fill="#231F20" stroke="#231F20" stroke-width="0.216" stroke-miterlimit="2.4142" d="
	M28.2,36.6c0.6,0,1.1,0.2,1.7-0.3c0.6-0.5,0.5-1.2-0.5-0.9c-0.7,0.2-1.6,0.9-2.3,1.4c-0.2,0.1-0.1,0.2,0,0.1
	C27.5,36.8,27.9,36.7,28.2,36.6L28.2,36.6z"/>
<path fill-rule="evenodd" clip-rule="evenodd" fill="#231F20" stroke="#231F20" stroke-width="0.216" stroke-miterlimit="2.4142" d="
	M24.2,37.8c0.6,0,1.2-0.2,1.8-0.5c0.2-0.1,0.3-0.1,0.1,0.1c-0.5,0.5-1.3,0.9-1.9,0.8C23.9,38.2,23.9,37.8,24.2,37.8L24.2,37.8z"/>
<g>
	<g>
		<path d="M51.2,0c-0.4,8-3.6,14.7-8,21.3c-0.3,0.5,0.4,2.7,0,3c6.2-3.8,10.7-8.9,14.3-15.2c0.4-0.8-0.4-2.3,0-3
			c-3.6,6.3-8.2,11.4-14.3,15.2c0,1,0,2,0,3c4.5-6.6,7.6-13.3,8-21.4C51.3,2,51.2,0.7,51.2,0L51.2,0z"/>
	</g>
</g>
</svg>
