<?xml version="1.0" encoding="utf-8"?>
<!-- Generator: Adobe Illustrator 19.2.1, SVG Export Plug-In . SVG Version: 6.00 Build 0)  -->
<svg version="1.1" id="Calque_1" xmlns="http://www.w3.org/2000/svg" xmlns:xlink="http://www.w3.org/1999/xlink" x="0px" y="0px"
	 width="255.5px" height="125.9px" viewBox="0 0 255.5 125.9" enable-background="new 0 0 255.5 125.9" xml:space="preserve">
<g>
	<g>
		<g>
			<polygon fill="#FFFFFF" points="41.6,13.1 69.2,13.1 69.2,17.6 46.4,17.6 46.4,29.3 67,29.3 67,33.8 46.4,33.8 46.4,47.1 
				69.2,47.1 69.2,51.7 41.6,51.7 			"/>
			<polygon fill="#FFFFFF" points="120.8,13.1 116,13.1 116,51.7 140.6,51.7 140.6,47.1 120.8,47.1 			"/>
			<path fill="#FFFFFF" d="M173.9,1.4c-4.6,1.7-11.3-1.3-18.2,0.8c-3.4,1-4.8,2.7-5.6,3.7c0.9-0.4,2.2-1,3.9-1.2
				c4.8-0.7,9.4,0.3,12.4-0.3c-1.8,1.6-11.4,2.4-17,2.4v0l-2.9,0v0.4l3.4-0.1C157.7,11.2,171.1,6.3,173.9,1.4z"/>
			<path fill="#FFFFFF" d="M35,32.3c0,12-6.9,19.4-17.5,19.4H3.1V13.1h14.3C28.1,13.1,35,20.4,35,32.3z M30.1,32.3
				c0-10.6-5.6-14.7-12.7-14.7H7.9v29.6h9.6C24.6,47.1,30.1,42.7,30.1,32.3z"/>
			<polygon fill="#FFFFFF" points="146.5,51.7 174.1,51.7 174.1,47.1 151.3,47.1 151.3,33.8 171.9,33.8 171.9,29.3 151.3,29.3 
				151.3,17.6 174.1,17.6 174.1,13.1 146.5,13.1 			"/>
			<path fill="#FFFFFF" d="M92.4,16.6c6.3,0,10.6,3.5,12.7,8.4h4.9c-2.4-7.6-8.9-12.9-17.7-12.9c-10.6,0-19.1,9-19.1,20.1
				c0,11.1,8.6,20.1,19.1,20.1c8.3,0,15.1-5.1,17.7-12.9h-4.9c-2.3,5.1-7.1,8.4-12.7,8.4c-8,0-14.5-7.1-14.5-15.6
				C78,23.7,84.5,16.6,92.4,16.6z"/>
			<path fill="#FFFFFF" d="M224,64.3c0.8,0.4,1.2,1.1,1.2,2.2V69h-1.4v-2.5c0-0.7-0.2-1.6-1.9-1.6h-3.6V69H217V58.6h4.9
				c2.3,0,3.6,1.3,3.6,3.1C225.5,62.9,225,63.8,224,64.3z M224.2,61.8c0-1.3-0.8-1.9-2.2-1.9h-3.6v3.8h3.6
				C223.2,63.7,224.2,63,224.2,61.8z"/>
			<rect x="234.1" y="58.6" fill="#FFFFFF" width="1.4" height="10.4"/>
			<path fill="#FFFFFF" d="M248.3,63c-2.3-0.4-2.8-0.8-2.8-1.7c0-1,0.8-1.7,2.5-1.7c1.7,0,2.5,0.8,2.5,2h1.4c0-2-1.5-3.2-4-3.2
				c-2.4,0-3.9,1.1-3.9,2.9c0,1.8,1.4,2.5,3.9,2.9c2.5,0.4,2.9,1,2.9,1.9c0,1.2-0.9,1.9-2.8,1.9c-1.7,0-2.8-0.9-2.8-2.3h-1.4
				c0,2.1,1.7,3.5,4.3,3.5c2.5,0,4.2-1.1,4.2-3.1C252.2,64.1,250.7,63.4,248.3,63z"/>
			<path fill="#FFFFFF" d="M251.5,47c0,1.5,0.4,3.6,0.8,4.7h-4.8c-0.4-1-0.7-2.4-0.7-4.2v-5.3c0-3.7-2-5.8-6.3-5.8h-12.6v15.2h-4.7
				V13.1h17.1c7.9,0,12.5,4.8,12.5,11.7c0,4.1-2,7.5-5.3,9.3c2.6,1.6,4.1,4.2,4.1,8.1V47z M248,24.8c0-5-3-7.2-7.7-7.2h-12.3v14.3
				h12.5C245,31.9,248,29.2,248,24.8z"/>
			<path fill="#FFFFFF" d="M193.5,61.8c0,1.8-1.3,3.1-3.6,3.1h-3.3V69h-1.4V58.6h4.7C192.2,58.6,193.5,59.9,193.5,61.8z M192.1,61.8
				c0-1.4-0.9-1.9-2.2-1.9h-3.3v3.8h3.3C191.2,63.7,192.1,63.1,192.1,61.8z"/>
			<path fill="#FFFFFF" d="M205.1,58.6l4.1,10.4h-1.5l-1.2-3H202l-1.2,3h-1.5l4.2-10.4H205.1z M206.1,64.8l-1.8-4.6l-1.8,4.6H206.1z
				"/>
			<path fill="#FFFFFF" d="M216.5,32.2c0,11.2-8.6,20.1-19.1,20.1c-10.6,0-19.1-8.8-19.1-20.1c0-11.2,8.6-20.1,19.1-20.1
				C208.1,12.1,216.5,20.8,216.5,32.2z M211.8,32.2c0-8.9-6.3-15.6-14.5-15.6c-8,0-14.5,6.9-14.5,15.6c0,8.8,6.5,15.6,14.5,15.6
				C205.3,47.8,211.8,41,211.8,32.2z"/>
		</g>
		<rect x="185.2" y="87.6" fill="#FFFFFF" width="67.2" height="1.4"/>
		<g>
			<path fill="#FFFFFF" d="M7.6,124.6c-2,0-2.9-0.7-4.6-0.7c0-1.3-0.2-2.8-0.3-4c0-0.1,0.2-0.2,0.3-0.2c0.2,0,0.3,0,0.3,0.2
				c0.8,2.9,2,3.9,4.3,3.9c2,0,2.9-1.3,2.9-3.1c0-3.8-7.6-4.1-7.6-8.6c0-2.3,1.9-4.5,4.9-4.5c1.6,0,2.1,0.4,3.6,0.4
				c0.1,1.3,0.2,2.3,0.4,3.6c0,0.1-0.1,0.2-0.3,0.2c-0.2,0-0.3,0-0.3-0.2c-0.5-2.4-1.5-3.3-3.3-3.3c-1.8,0-2.8,1.1-2.8,2.8
				c0,3.4,7.6,4,7.6,8.3C12.7,122.6,10.8,124.6,7.6,124.6z"/>
			<path fill="#FFFFFF" d="M32.8,124.2c-1.5,0-2.2-0.1-3.6-0.1c-1.4,0-2.4,0.1-3.9,0.1c-0.1,0-0.2-0.1-0.2-0.3s0.1-0.3,0.2-0.3
				c1.1-0.1,1.6-0.4,1.6-0.7c0-0.2-0.2-0.5-0.5-0.8l-4.6-4.7c-0.5-0.5-0.7-0.6-1.4-0.6v4.9c0,1.2,0.2,1.7,2.4,2
				c0.1,0,0.2,0.1,0.2,0.3s-0.1,0.3-0.2,0.3c-1.5,0-2.2-0.1-3.6-0.1c-1.4,0-2,0.1-3.6,0.1c-0.1,0-0.2-0.1-0.2-0.3s0.1-0.3,0.2-0.3
				c2.3-0.3,2.4-0.8,2.4-2v-11c0-1.2-0.2-1.7-2.4-2c-0.1,0-0.2-0.1-0.2-0.3c0-0.2,0.1-0.3,0.2-0.3c1.5,0,2.2,0.1,3.6,0.1
				c1.4,0,2.1-0.1,3.6-0.1c0.1,0,0.2,0.2,0.2,0.3c0,0.2-0.1,0.3-0.2,0.3c-2.3,0.3-2.4,0.8-2.4,2v5.3c0.6,0,0.9-0.1,1.4-0.6l5.1-5.1
				c0.4-0.4,0.6-0.6,0.6-0.9c0-0.5-0.4-0.6-1.5-0.7c-0.1,0-0.2-0.1-0.2-0.3c0-0.2,0.1-0.3,0.2-0.3c1.1,0,1.8,0.1,3,0.1
				c1.2,0,1.5-0.1,2.5-0.1c0.1,0,0.2,0.2,0.2,0.3c0,0.2-0.1,0.3-0.2,0.3c-1.5,0.2-2.1,0.5-3.3,1.6l-5.3,5.1l6.6,6.7
				c1.1,1.1,1.9,1.4,3.3,1.5c0.1,0,0.2,0.1,0.2,0.3S32.9,124.2,32.8,124.2z"/>
			<path fill="#FFFFFF" d="M42.9,124.2c-1.5,0-2.1-0.1-3.6-0.1c-1.4,0-2,0.1-3.6,0.1c-0.1,0-0.2-0.1-0.2-0.3s0.1-0.3,0.2-0.3
				c2.3-0.3,2.4-0.8,2.4-2v-11c0-1.2-0.2-1.7-2.4-2c-0.1,0-0.2-0.1-0.2-0.3c0-0.2,0.1-0.3,0.2-0.3c1.6,0,2.2,0.1,3.6,0.1
				c1.4,0,2-0.1,3.6-0.1c0.1,0,0.2,0.2,0.2,0.3c0,0.2-0.1,0.3-0.2,0.3c-2.3,0.3-2.4,0.8-2.4,2v11c0,1.2,0.1,1.7,2.4,2
				c0.1,0,0.2,0.1,0.2,0.3S43,124.2,42.9,124.2z"/>
			<path fill="#FFFFFF" d="M65.3,108.6c-2.3,0.3-2.5,0.8-2.6,2l-0.3,13.8c0,0.1-0.1,0.2-0.3,0.2c-0.2,0-0.3-0.1-0.4-0.2l-12-13.6
				l-0.2,10.8c0,1.2,0.3,1.7,2.6,2c0.1,0,0.2,0.1,0.2,0.3s-0.1,0.3-0.2,0.3c-1.2,0-2.1-0.1-3.2-0.1c-1.1,0-2,0.1-3,0.1
				c-0.1,0-0.2-0.1-0.2-0.3c0-0.2,0.1-0.3,0.2-0.3c2.3-0.3,2.5-0.8,2.5-2l0.4-11c0-1.2-0.3-1.7-2.6-2c-0.1,0-0.2-0.1-0.2-0.3
				c0-0.2,0.1-0.3,0.2-0.3c0.8,0,1.4,0.1,2.1,0.1c0.8,0,1.1-0.1,2-0.1l11.2,12.6v-9.9c0-1.2-0.4-1.7-2.6-2c-0.1,0-0.2-0.1-0.2-0.3
				s0.1-0.3,0.2-0.3c1.2,0,2.1,0.1,3.2,0.1c1.1,0,2-0.1,3-0.1c0.1,0,0.2,0.1,0.2,0.3C65.5,108.5,65.4,108.6,65.3,108.6z"/>
			<path fill="#FFFFFF" d="M75.3,117.7c-0.7,0-1.4-0.6-1.4-1.4c0-0.8,0.6-1.4,1.4-1.4c0.7,0,1.3,0.6,1.3,1.4
				C76.6,117.1,76,117.7,75.3,117.7z"/>
			<path fill="#FFFFFF" d="M94,124.2c-1.5,0-2.8-0.1-4.3-0.1c-1.4,0-2.4,0.1-3.9,0.1c-0.1,0-0.2-0.1-0.2-0.3s0.1-0.3,0.2-0.3
				c2.3-0.3,2.4-0.8,2.4-2v-11c0-1.2-0.2-1.7-2.4-2c-0.1,0-0.2-0.1-0.2-0.3c0-0.2,0.1-0.3,0.2-0.3c1.5,0,2.3,0.1,3.7,0.1
				c1.4,0,2.3-0.1,3.9-0.1c2.9,0,4.9,1.5,4.9,3.8c0,1.6-1.5,3.2-3.4,3.6c2.5,0.5,4.5,1.9,4.5,4.1C99.3,122.3,97.1,124.2,94,124.2z
				 M92.5,108.8H92c-1.1,0-1.5,0.5-1.5,1.3v5.1h1.7c2.5,0,3.4-1.1,3.4-3.4C95.6,109.8,94.7,108.8,92.5,108.8z M93.1,115.9h-2.5v5.7
				c0,1.2,0.4,1.8,2.7,1.8c1.9,0,3.5-1.5,3.5-4C96.7,117.3,95.4,115.9,93.1,115.9z"/>
			<path fill="#FFFFFF" d="M111.2,124.6c-5.3,0-8.5-3.7-8.5-8.4c0-4.7,3.2-8.6,8.5-8.6c5.3,0,8.6,3.9,8.6,8.6
				C119.8,120.9,116.6,124.6,111.2,124.6z M111.2,108.4c-3.8,0-6,3.5-6,7.8c0,4.3,2.2,7.7,6,7.7c3.8,0,6-3.3,6-7.7
				C117.2,111.9,115,108.4,111.2,108.4z"/>
			<path fill="#FFFFFF" d="M130.8,124.2c-1,0-3.1-0.1-4.2-0.1c-1.1,0-3.2,0-4.2,0.1c-0.1,0-0.2-0.1-0.2-0.3s0.1-0.3,0.2-0.3
				c2.3-0.3,2.4-0.8,2.4-2v-11c0-1.2-0.1-1.7-2.4-2c-0.1,0-0.2-0.1-0.2-0.3c0-0.2,0.1-0.3,0.2-0.3c1,0.1,3.1,0.1,4.2,0.1
				c1.1,0,3.2-0.1,4.2-0.1c5.6,0,8.9,3.6,8.9,8.2C139.6,120.5,136.7,124.2,130.8,124.2z M130.7,108.8l-2.2,0c-0.6,0-1.4,0.2-1.4,1.4
				V122c0,1.1,0.7,1.3,1.4,1.3l2.2,0.1c3.6,0,6.4-3,6.4-7.2C137.1,111.9,134.3,108.8,130.7,108.8z"/>
			<path fill="#FFFFFF" d="M158.3,108.6c-1.8,0.2-2.3,0.7-3.1,2l-4.3,6.3v4.7c0,1.2,0,1.7,2.2,2c0.1,0,0.2,0.1,0.2,0.3
				s-0.1,0.3-0.2,0.3c-1.5,0-2-0.1-3.4-0.1c-1.4,0-2,0.1-3.6,0.1c-0.1,0-0.2-0.1-0.2-0.3s0.1-0.3,0.2-0.3c2.3-0.3,2.4-0.8,2.4-2
				v-4.6l-4-6.4c-0.8-1.1-1.3-1.8-3.1-2c-0.1,0-0.2-0.1-0.2-0.3c0-0.2,0.1-0.3,0.2-0.3c1.1,0,1.9,0.1,3.1,0.1c1.3,0,2.1-0.1,3.7-0.1
				c0.1,0,0.2,0.2,0.2,0.3c0,0.2-0.1,0.3-0.2,0.3c-1.1,0.2-1.5,0.4-1.5,0.8c0,0.5,0.2,0.7,0.5,1.2l3.3,5.3l3.5-5.3
				c0.3-0.4,0.4-0.6,0.4-1c0-0.5-0.4-0.8-1.8-1c-0.1,0-0.1-0.1-0.1-0.3c0-0.2,0.1-0.3,0.2-0.3c1.3,0,2,0.1,3.3,0.1
				c1.2,0,1.3-0.1,2.5-0.1c0.1,0,0.2,0.2,0.2,0.3C158.6,108.5,158.4,108.6,158.3,108.6z"/>
			<path fill="#FFFFFF" d="M168.3,117.7c-0.7,0-1.4-0.6-1.4-1.4c0-0.8,0.6-1.4,1.4-1.4c0.7,0,1.3,0.6,1.3,1.4
				C169.6,117.1,169,117.7,168.3,117.7z"/>
			<path fill="#FFFFFF" d="M199.9,124.2c-1.5,0-2.2-0.1-3.7-0.1c-1.4,0-2,0.1-3.6,0.1c-0.1,0-0.2-0.1-0.2-0.3s0.1-0.3,0.2-0.3
				c2.2-0.3,2.4-0.8,2.3-2l-0.5-11.3l-5.6,14.1c0,0.1-0.2,0.2-0.3,0.2c-0.2,0-0.3-0.1-0.3-0.2l-5.3-13.6l-0.8,10.8
				c-0.1,1.2,0.2,1.7,2.4,2c0.1,0,0.2,0.1,0.2,0.3s-0.1,0.3-0.2,0.3c-1.2,0-2.1-0.1-3.2-0.1c-1.1,0-2,0.1-3.1,0.1
				c-0.1,0-0.2-0.1-0.2-0.3s0.1-0.3,0.2-0.3c2.3-0.3,2.6-0.8,2.7-2l1.2-11c0.1-1.2-0.2-1.7-2.5-2c-0.1,0-0.2-0.1-0.2-0.3
				c0-0.2,0.1-0.3,0.2-0.3c0.8,0,1.6,0.1,2.2,0.1c0.8,0,1.5-0.1,2.4-0.1l5,13l5.2-13c0.9,0,1.5,0.1,2.3,0.1c1,0,1.4-0.1,2.4-0.1
				c0.1,0,0.2,0.2,0.2,0.3c0,0.2-0.1,0.3-0.2,0.3c-2.2,0.3-2.4,0.8-2.3,2l0.5,11c0,1.2,0.2,1.7,2.5,2c0.1,0,0.2,0.1,0.2,0.3
				S200,124.2,199.9,124.2z"/>
			<path fill="#FFFFFF" d="M210.4,124.2c-1.5,0-2.1-0.1-3.6-0.1c-1.4,0-2,0.1-3.6,0.1c-0.1,0-0.2-0.1-0.2-0.3s0.1-0.3,0.2-0.3
				c2.3-0.3,2.4-0.8,2.4-2v-11c0-1.2-0.2-1.7-2.4-2c-0.1,0-0.2-0.1-0.2-0.3c0-0.2,0.1-0.3,0.2-0.3c1.6,0,2.2,0.1,3.6,0.1
				c1.4,0,2-0.1,3.6-0.1c0.1,0,0.2,0.2,0.2,0.3c0,0.2-0.1,0.3-0.2,0.3c-2.3,0.3-2.4,0.8-2.4,2v11c0,1.2,0.1,1.7,2.4,2
				c0.1,0,0.2,0.1,0.2,0.3S210.5,124.2,210.4,124.2z"/>
			<path fill="#FFFFFF" d="M232.9,108.6c-2.3,0.3-2.5,0.8-2.6,2l-0.3,13.8c0,0.1-0.1,0.2-0.3,0.2c-0.2,0-0.3-0.1-0.4-0.2l-12-13.6
				l-0.2,10.8c0,1.2,0.3,1.7,2.6,2c0.1,0,0.2,0.1,0.2,0.3s-0.1,0.3-0.2,0.3c-1.2,0-2.1-0.1-3.2-0.1c-1.1,0-2,0.1-3,0.1
				c-0.1,0-0.2-0.1-0.2-0.3c0-0.2,0.1-0.3,0.2-0.3c2.3-0.3,2.5-0.8,2.5-2l0.4-11c0-1.2-0.3-1.7-2.6-2c-0.1,0-0.2-0.1-0.2-0.3
				c0-0.2,0.1-0.3,0.2-0.3c0.8,0,1.4,0.1,2.1,0.1c0.8,0,1.1-0.1,2-0.1l11.2,12.6v-9.9c0-1.2-0.4-1.7-2.6-2c-0.1,0-0.2-0.1-0.2-0.3
				s0.1-0.3,0.2-0.3c1.2,0,2.1,0.1,3.2,0.1c1.1,0,2-0.1,3-0.1c0.1,0,0.2,0.1,0.2,0.3C233.1,108.5,233,108.6,232.9,108.6z"/>
			<path fill="#FFFFFF" d="M243.5,124.2c-1,0-3.1-0.1-4.2-0.1c-1.1,0-3.2,0-4.2,0.1c-0.1,0-0.2-0.1-0.2-0.3s0.1-0.3,0.2-0.3
				c2.3-0.3,2.4-0.8,2.4-2v-11c0-1.2-0.1-1.7-2.4-2c-0.1,0-0.2-0.1-0.2-0.3c0-0.2,0.1-0.3,0.2-0.3c1,0.1,3.1,0.1,4.2,0.1
				c1.1,0,3.2-0.1,4.2-0.1c5.6,0,8.9,3.6,8.9,8.2C252.4,120.5,249.4,124.2,243.5,124.2z M243.4,108.8l-2.2,0c-0.6,0-1.4,0.2-1.4,1.4
				V122c0,1.1,0.7,1.3,1.4,1.3l2.2,0.1c3.6,0,6.4-3,6.4-7.2C249.8,111.9,247,108.8,243.4,108.8z"/>
		</g>
	</g>
</g>
</svg>
