<?xml version="1.0" encoding="utf-8"?>
<!-- Generator: Adobe Illustrator 19.2.1, SVG Export Plug-In . SVG Version: 6.00 Build 0)  -->
<svg version="1.1" id="Calque_1" xmlns="http://www.w3.org/2000/svg" xmlns:xlink="http://www.w3.org/1999/xlink" x="0px" y="0px"
	 width="160px" height="43.5px" viewBox="0 0 160 43.5" enable-background="new 0 0 160 43.5" xml:space="preserve">
<g>
	<g>
		<g>
			<polygon fill="#AB8248" points="25.4,7.7 42.8,7.7 42.8,10.5 28.4,10.5 28.4,17.9 41.4,17.9 41.4,20.8 28.4,20.8 28.4,29.2 
				42.8,29.2 42.8,32.1 25.4,32.1 			"/>
			<polygon fill="#AB8248" points="75.5,7.7 72.5,7.7 72.5,32.1 88,32.1 88,29.2 75.5,29.2 			"/>
			<path fill="#AB8248" d="M109.1,0.3c-2.9,1.1-7.1-0.8-11.5,0.5c-2.2,0.6-3,1.7-3.6,2.4c0.6-0.2,1.4-0.6,2.5-0.8
				c3-0.4,5.9,0.2,7.9-0.2c-1.1,1-7.2,1.5-10.8,1.5v0l-1.8,0v0.2l2.1-0.1C98.8,6.5,107.3,3.4,109.1,0.3z"/>
			<path fill="#AB8248" d="M21.2,19.9c0,7.6-4.3,12.3-11.1,12.3H1V7.7h9.1C16.8,7.7,21.2,12.3,21.2,19.9z M18.1,19.9
				c0-6.7-3.6-9.3-8-9.3H4v18.7h6.1C14.6,29.2,18.1,26.5,18.1,19.9z"/>
			<polygon fill="#AB8248" points="91.8,32.1 109.2,32.1 109.2,29.2 94.8,29.2 94.8,20.8 107.8,20.8 107.8,17.9 94.8,17.9 
				94.8,10.5 109.2,10.5 109.2,7.7 91.8,7.7 			"/>
			<path fill="#AB8248" d="M57.5,9.9c4,0,6.7,2.2,8.1,5.3h3.1c-1.5-4.8-5.6-8.1-11.2-8.1c-6.7,0-12.1,5.7-12.1,12.7
				c0,7,5.4,12.7,12.1,12.7c5.2,0,9.5-3.2,11.2-8.2h-3.1c-1.5,3.2-4.5,5.3-8.1,5.3c-5,0-9.2-4.5-9.2-9.9
				C48.4,14.4,52.5,9.9,57.5,9.9z"/>
			<path fill="#AB8248" d="M140.8,40.1c0.5,0.3,0.7,0.7,0.7,1.4v1.6h-0.9v-1.6c0-0.4-0.1-1-1.2-1h-2.3v2.6h-0.9v-6.6h3.1
				c1.4,0,2.3,0.8,2.3,2C141.8,39.2,141.4,39.8,140.8,40.1z M140.9,38.5c0-0.8-0.5-1.2-1.4-1.2h-2.2v2.4h2.3
				C140.3,39.7,140.9,39.3,140.9,38.5z"/>
			<rect x="147.2" y="36.5" fill="#AB8248" width="0.9" height="6.6"/>
			<path fill="#AB8248" d="M156.2,39.3c-1.4-0.2-1.8-0.5-1.8-1.1c0-0.6,0.5-1.1,1.6-1.1c1.1,0,1.6,0.5,1.6,1.3h0.9c0-1.3-1-2-2.5-2
				c-1.5,0-2.5,0.7-2.5,1.9c0,1.1,0.9,1.6,2.5,1.8c1.6,0.2,1.8,0.6,1.8,1.2c0,0.7-0.6,1.2-1.8,1.2c-1.1,0-1.8-0.5-1.8-1.4h-0.9
				c0,1.3,1.1,2.2,2.7,2.2c1.6,0,2.7-0.7,2.7-2C158.7,40,157.7,39.6,156.2,39.3z"/>
			<path fill="#AB8248" d="M158.2,29.2c0,0.9,0.2,2.3,0.5,3h-3c-0.3-0.7-0.5-1.5-0.5-2.6v-3.3c0-2.4-1.2-3.7-4-3.7h-8v9.6h-3V7.7
				h10.8c5,0,7.9,3,7.9,7.4c0,2.6-1.3,4.7-3.3,5.9c1.7,1,2.6,2.7,2.6,5.1V29.2z M156,15.1c0-3.2-1.9-4.5-4.9-4.5h-7.8v9.1h7.9
				C154.1,19.6,156,17.9,156,15.1z"/>
			<path fill="#AB8248" d="M121.5,38.5c0,1.2-0.8,2-2.3,2h-2.1v2.6h-0.9v-6.6h3C120.7,36.5,121.5,37.4,121.5,38.5z M120.6,38.5
				c0-0.9-0.6-1.2-1.4-1.2h-2.1v2.4h2.1C120,39.7,120.6,39.4,120.6,38.5z"/>
			<path fill="#AB8248" d="M128.8,36.5l2.6,6.6h-1l-0.7-1.9h-2.8l-0.7,1.9h-0.9l2.7-6.6H128.8z M129.4,40.4l-1.1-2.9l-1.1,2.9H129.4
				z"/>
			<path fill="#AB8248" d="M136,19.8c0,7.1-5.4,12.7-12.1,12.7c-6.7,0-12.1-5.6-12.1-12.7c0-7.1,5.4-12.7,12.1-12.7
				C130.7,7.1,136,12.6,136,19.8z M133.1,19.8c0-5.6-4-9.9-9.2-9.9c-5,0-9.2,4.3-9.2,9.9c0,5.6,4.1,9.9,9.2,9.9
				C129,29.7,133.1,25.3,133.1,19.8z"/>
		</g>
	</g>
</g>
</svg>
