<?xml version="1.0" encoding="utf-8"?>
<!-- Generator: Adobe Illustrator 19.2.1, SVG Export Plug-In . SVG Version: 6.00 Build 0)  -->
<svg version="1.1" id="Layer_1" xmlns="http://www.w3.org/2000/svg" xmlns:xlink="http://www.w3.org/1999/xlink" x="0px" y="0px"
	 width="16px" height="16px" viewBox="0 0 16 16" style="enable-background:new 0 0 16 16;" xml:space="preserve">
<path d="M8,1c3.9,0,7,3.1,7,7s-3.1,7-7,7s-7-3.1-7-7S4.1,1,8,1L8,1z M10.2,7.3H9.3c0-0.1,0-0.1,0-0.2c0-0.2-0.1-0.4-0.3-0.5l0.8-2.9
	c0-0.1,0-0.3-0.2-0.3c-0.1,0-0.3,0-0.3,0.2l-0.8,3H8.2l0.1-3.3c0-0.1-0.1-0.2-0.2-0.3h0c-0.1,0-0.2,0.1-0.2,0.2L7.7,6.6H7.5L6.8,3.7
	c0-0.1-0.2-0.2-0.3-0.2c-0.1,0-0.2,0.2-0.2,0.3c0,0,0,0,0,0L7,6.6C6.8,6.7,6.6,7,6.7,7.3H5.8c-0.2,0-0.3,0.1-0.3,0.3v5.1
	c0,0.2,0.1,0.3,0.3,0.3h4.4c0.2,0,0.3-0.1,0.3-0.3V7.6C10.5,7.4,10.3,7.3,10.2,7.3L10.2,7.3L10.2,7.3z M9.8,11.9
	c0,0.2-0.2,0.4-0.4,0.4H6.7c-0.2,0-0.4-0.2-0.4-0.4v-2c0-0.2,0.2-0.4,0.4-0.4h1l0,0.4L7.1,12c0,0.1,0,0.3,0.2,0.3c0,0,0,0,0.1,0
	c0.1,0,0.2-0.1,0.2-0.2L7.6,12v0c0,0.1,0.1,0.2,0.2,0.3c0,0,0,0,0,0h0c0.1,0,0.2-0.1,0.2-0.2l0-0.8l0.2,0.6C8.3,12,8.4,12,8.5,12
	c0,0,0,0,0.1,0c0.1,0,0.2-0.2,0.2-0.3L8.2,9.6l0-0.1h1.1c0.2,0,0.4,0.2,0.4,0.4c0,0,0,0,0,0L9.8,11.9L9.8,11.9z"/>
</svg>
