<?xml version="1.0" encoding="utf-8"?>
<!-- Generator: Adobe Illustrator 19.2.1, SVG Export Plug-In . SVG Version: 6.00 Build 0)  -->
<svg version="1.1" id="Layer_1" xmlns="http://www.w3.org/2000/svg" xmlns:xlink="http://www.w3.org/1999/xlink" x="0px" y="0px"
	 width="16px" height="16px" viewBox="0 0 16 16" style="enable-background:new 0 0 16 16;" xml:space="preserve">
<path d="M8,1c3.9,0,7,3.1,7,7s-3.1,7-7,7s-7-3.1-7-7S4.1,1,8,1L8,1z M11.2,9.1c-0.3-0.4-0.4-0.8-0.6-1.3h0c-0.1-0.5-0.2-0.9-0.1-1.4
	c0-0.5,0.1-1,0.4-1.4h0c0.2-0.4,0.4-0.8,0.7-1.2c0.1-0.1,0.1-0.2,0-0.3c-0.1-0.1-0.2-0.1-0.3,0c-0.4,0.4-0.6,0.9-0.9,1.4
	c0,0.1-0.1,0.2-0.1,0.3c-0.1,0.5-0.2,1-0.3,1.5c0,0,0,0,0,0c0,0.1,0,0.1,0,0.2c0,0.3,0.1,0.6,0.1,0.8h0c0.1,0.5,0.4,1,0.6,1.5
	c0.1,0.1,0.1,0.2,0.2,0.4c-1,0.4-2,0.6-3,0.6l0,0C7,10.2,5.9,10,5,9.6C5,9.5,5.1,9.4,5.2,9.3c2-3.1-0.4-5.7-0.4-5.8
	c-0.1-0.1-0.2-0.1-0.3,0c-0.1,0.1-0.1,0.2,0,0.3l0,0c0.1,0.1,2.2,2.5,0.4,5.3c-0.4,0.6-1.1,1.6-0.9,2.9c0,0.1,0.1,0.2,0.2,0.2
	c0,0,0,0,0,0c0.1,0,0.2-0.1,0.2-0.2c0,0,0,0,0,0c0-0.7,0.1-1.4,0.5-2c1,0.4,2.2,0.7,3.3,0.7l0,0c1.1,0,2.2-0.2,3.2-0.6
	c0.3,0.6,0.5,1.2,0.5,1.9c0,0.1,0.1,0.2,0.2,0.2c0,0,0,0,0,0c0,0,0,0,0,0c0.1,0,0.2-0.1,0.2-0.2C12.2,10.7,11.5,9.7,11.2,9.1
	L11.2,9.1z M8,9.8c-0.2,0-0.4-0.2-0.4-0.4C7.6,9.2,7.8,9,8,9c0.2,0,0.4,0.2,0.4,0.4c0,0,0,0,0,0C8.4,9.6,8.2,9.8,8,9.8L8,9.8z"/>
</svg>
