<?xml version="1.0" encoding="utf-8"?>
<!-- Generator: Adobe Illustrator 19.2.1, SVG Export Plug-In . SVG Version: 6.00 Build 0)  -->
<svg version="1.1" id="Layer_1" xmlns="http://www.w3.org/2000/svg" xmlns:xlink="http://www.w3.org/1999/xlink" x="0px" y="0px"
	 width="13.5px" height="16px" viewBox="0 0 13.5 16" enable-background="new 0 0 13.5 16" xml:space="preserve">
<path id="icon_join" d="M11.1,1H2.3C1.5,1,0.8,1.7,0.8,2.5v1.7h11.8V2.5C12.6,1.7,12,1,11.1,1z M11.4,13.5c0,0.2-0.1,0.3-0.3,0.3
	H2.3c-0.2,0-0.3-0.1-0.3-0.3V5.1H0.8v8.4c0,0.8,0.7,1.5,1.5,1.5h8.8c0.8,0,1.5-0.7,1.5-1.5V5.1h-1.2L11.4,13.5L11.4,13.5z M4,11.1
	c0,0.1,0.1,0.2,0.1,0.2h5.1c0.1,0,0.1-0.1,0.1-0.2v-0.6c0-0.1-0.1-0.2-0.1-0.2H4.2c-0.1,0-0.1,0.1-0.1,0.2L4,11.1L4,11.1z M4,9.2
	c0,0.1,0.1,0.2,0.1,0.2h5.1c0.1,0,0.1-0.1,0.1-0.2V8.6c0-0.1-0.1-0.2-0.1-0.2H4.2C4.1,8.4,4,8.5,4,8.6L4,9.2L4,9.2z M4.2,7.4h5.1
	c0.1,0,0.1-0.1,0.1-0.2V6.7c0-0.1-0.1-0.2-0.1-0.2H4.2C4.1,6.5,4,6.6,4,6.7v0.6C4,7.4,4.1,7.4,4.2,7.4L4.2,7.4z"/>
</svg>
