<?xml version="1.0" encoding="utf-8"?>
<!-- Generator: Adobe Illustrator 19.2.1, SVG Export Plug-In . SVG Version: 6.00 Build 0)  -->
<svg version="1.1" id="Layer_1" xmlns="http://www.w3.org/2000/svg" xmlns:xlink="http://www.w3.org/1999/xlink" x="0px" y="0px"
	 width="16px" height="16px" viewBox="0 0 16 16" style="enable-background:new 0 0 16 16;" xml:space="preserve">
<path fill="#BE0000" class="st0" d="M8,1.7c3.5,0,6.3,2.8,6.3,6.3s-2.8,6.3-6.3,6.3S1.7,11.5,1.7,8S4.5,1.7,8,1.7 M8,1C4.1,1,1,4.1,1,8s3.1,7,7,7
	s7-3.1,7-7S11.9,1,8,1L8,1z"/>
<path fill="#BE0000" d="M7.9,4.7C7.4,4.8,7,5.2,7,5.7c0,0,0,0.1,0,0.1c0,1,0.7,2.3,0.8,3.9H8C8,8.1,8.8,6.8,8.8,5.8
	C8.8,5.3,8.4,4.8,7.9,4.7C7.9,4.7,7.9,4.7,7.9,4.7z M7.9,10c-0.4,0.1-0.7,0.4-0.6,0.8s0.4,0.7,0.8,0.6c0.4-0.1,0.6-0.4,0.6-0.7
	c0-0.4-0.3-0.7-0.7-0.7C8,10,7.9,10,7.9,10L7.9,10z"/>
</svg>
