<?xml version="1.0" encoding="utf-8"?>
<!-- Generator: Adobe Illustrator 19.2.1, SVG Export Plug-In . SVG Version: 6.00 Build 0)  -->
<svg version="1.1" id="Layer_1" xmlns="http://www.w3.org/2000/svg" xmlns:xlink="http://www.w3.org/1999/xlink" x="0px" y="0px"
	 width="16px" height="16px" viewBox="0 0 16 16" style="enable-background:new 0 0 16 16;" xml:space="preserve">
<path d="M8,1C4.1,1,1,4.1,1,8s3.1,7,7,7s7-3.1,7-7S11.9,1,8,1z M12.5,9.1C12,9.7,10.5,11,8.4,11.1c-0.1,0-0.2,0-0.2,0
	c-0.1,0-0.2,0-0.2,0C6,11,4.5,9.7,3.9,9.1C3.8,9,3.8,8.9,3.8,8.8c0-0.1,0.1-0.2,0.1-0.3C4.5,7.9,6,6.6,8,6.5c0.1,0,0.2,0,0.2,0
	c0.1,0,0.2,0,0.2,0c2,0.1,3.5,1.4,4.1,1.9l-0.3,0.3C11.8,8.4,11,7.6,9.9,7.2c0.4,0.4,0.6,1,0.6,1.6c0,0.6-0.2,1.2-0.6,1.6
	c1.1-0.4,2-1.1,2.4-1.5c0,0,0-0.1,0-0.1l0.3-0.3C12.7,8.7,12.7,9,12.5,9.1z M12.9,6.9c-0.1,0.1-0.3,0.1-0.4,0C10,4.7,6.4,4.7,4,6.9
	C3.9,7,3.7,7,3.6,6.9c0,0,0,0,0,0c-0.1-0.1-0.1-0.3,0-0.4c1.3-1.1,2.9-1.8,4.6-1.8c1.7,0,3.4,0.6,4.6,1.8h0c0,0,0,0,0,0
	C13,6.6,13,6.8,12.9,6.9z M6.6,10.4c-1.1-0.4-2-1.1-2.4-1.5c0,0,0-0.1,0-0.1c0.4-0.4,1.2-1.1,2.4-1.5c-0.4,0.4-0.6,1-0.6,1.6
	C5.9,9.4,6.2,10,6.6,10.4z M8.3,6.9C8.2,6.9,8.2,6.9,8.3,6.9c-0.1,0-0.1,0-0.1,0c-1,0-1.8,0.9-1.8,1.9c0,1,0.8,1.8,1.8,1.9
	c0,0,0,0,0.1,0c0,0,0,0,0.1,0c1,0,1.8-0.9,1.8-1.9C10.1,7.8,9.3,7,8.3,6.9z M8.2,9.5c-0.4,0-0.7-0.3-0.7-0.7s0.3-0.7,0.7-0.7
	c0,0.4,0.3,0.7,0.8,0.7C8.9,9.2,8.6,9.5,8.2,9.5z"/>
</svg>
