<?xml version="1.0" encoding="utf-8"?>
<!-- Generator: Adobe Illustrator 19.2.1, SVG Export Plug-In . SVG Version: 6.00 Build 0)  -->
<svg version="1.1" id="Layer_1" xmlns="http://www.w3.org/2000/svg" xmlns:xlink="http://www.w3.org/1999/xlink" x="0px" y="0px"
	 width="16px" height="13.8px" viewBox="0 0 16 13.8" enable-background="new 0 0 16 13.8" xml:space="preserve">
<path id="g_" d="M14.7,5.8h-2.1v-2c0-0.2-0.1-0.3-0.3-0.3h-0.6c-0.2,0-0.3,0.1-0.3,0.3c0,0,0,0,0,0v2H9.3C9.1,5.8,9,5.9,9,6.1v0.6
	c0,0.2,0.1,0.3,0.3,0.3h2.1v2c0,0.2,0.1,0.3,0.3,0.3c0,0,0,0,0,0h0.6c0.2,0,0.3-0.1,0.3-0.3c0,0,0,0,0,0v-2h2.1
	c0.2,0,0.3-0.1,0.3-0.3c0,0,0,0,0,0V6.1C15,5.9,14.9,5.8,14.7,5.8z M7.6,7.6C7.3,7.3,7,7,6.8,6.7c0-0.2,0-0.4,0.6-0.8
	c0.7-0.5,1.1-1.2,1.2-2.1c0-0.6-0.2-1.3-0.6-1.8h0.3C8.3,2,8.3,2,8.4,2l0.8-0.6c0.1-0.1,0.1-0.2,0.1-0.3c0-0.1-0.2-0.2-0.3-0.2H5.3
	c-0.4,0-0.8,0.1-1.2,0.2C2.8,1.4,1.9,2.5,1.8,3.8c0,1.6,1.4,2.9,3,2.9c0,0,0,0,0,0c0,0.1-0.1,0.3-0.1,0.4c0,0.3,0.1,0.5,0.2,0.7h0
	c-1.7,0-3.2,0.8-3.7,1.9C1.1,10,1,10.3,1,10.6c0,0.3,0.1,0.6,0.2,0.8c0.5,0.7,1.3,1.2,2.2,1.3C3.9,12.9,4.5,13,5.1,13
	c0.5,0,1-0.1,1.5-0.2C8.1,12.4,9,11.3,9,10.1C9.1,9.1,8.5,8.1,7.6,7.6z M2.9,10.2c0-0.8,1.1-1.6,2.4-1.6h0c0.3,0,0.5,0,0.8,0.1
	c0.1,0.1,0.2,0.1,0.3,0.2c0.5,0.2,0.9,0.6,1.1,1c0,0.1,0,0.2,0,0.3c0,1-0.8,1.6-2.4,1.6C3.9,11.8,2.9,11.1,2.9,10.2z M4.1,2.3
	c0.2-0.2,0.5-0.3,0.7-0.3h0c0.8,0,1.6,0.9,1.8,2c0.1,0.5,0,1.1-0.4,1.5C6,5.6,5.8,5.7,5.5,5.7h0c-0.8,0-1.6-0.9-1.7-2
	C3.6,3.2,3.8,2.7,4.1,2.3z"/>
</svg>
