<?xml version="1.0" encoding="utf-8"?>
<!-- Generator: Adobe Illustrator 19.2.1, SVG Export Plug-In . SVG Version: 6.00 Build 0)  -->
<svg version="1.1" id="Layer_1" xmlns="http://www.w3.org/2000/svg" xmlns:xlink="http://www.w3.org/1999/xlink" x="0px" y="0px"
	 width="24px" height="16px" viewBox="0 0 24 16" enable-background="new 0 0 24 16" xml:space="preserve">
<path id="icon_proprio" d="M8.2,4.8C7.5,5.3,7.9,6.9,9.4,6c0,0,1.9-1,2.9-1.6c0.2-0.1,0.4-0.1,0.6,0.1c0,0,0,0,0,0.1
	c0.2,0.2,5.1,5.9,5.1,5.9c0.8-0.7,1.6-1.5,2.1-2.4c0,0-1.4-2.7-2.6-5.3c-0.3,0.3-0.7,0.4-1.1,0.3c-0.4-0.2-0.8-0.4-1.2-0.7
	c-0.4-0.3-0.9-0.5-1.4-0.6c-0.7,0-1.4,0.2-2,0.6C11,2.7,10.3,3.2,9.6,3.7C9.1,4,8.7,4.4,8.2,4.8z M9.1,13.7
	c-0.3-0.4-0.2-0.9,0.1-1.2l1.6-1.5c0.3-0.3,0.7-0.3,0.9,0c0,0,0.1,0.1,0.1,0.1l0,0c0.3,0.4,0.2,0.9-0.1,1.2l-1.6,1.5
	c-0.3,0.3-0.7,0.3-0.9,0C9.2,13.7,9.2,13.7,9.1,13.7L9.1,13.7L9.1,13.7z M7.7,12.3c-0.3-0.4-0.2-0.9,0.1-1.2L9,9.9
	c0.3-0.3,0.7-0.3,0.9,0c0,0,0.1,0.1,0.1,0.1l0,0c0.3,0.4,0.2,0.9-0.1,1.2l-1.2,1.2c-0.3,0.3-0.7,0.3-0.9,0
	C7.8,12.4,7.7,12.3,7.7,12.3L7.7,12.3L7.7,12.3z M6,11.2c-0.2-0.4-0.2-0.9,0.2-1.2l0.3-0.2c0.3-0.2,0.7-0.2,0.9,0
	c0,0,0.1,0.1,0.1,0.1l0,0c0.2,0.4,0.2,0.9-0.2,1.2L7,11.4c-0.3,0.2-0.7,0.2-0.9,0C6,11.3,6,11.2,6,11.2L6,11.2L6,11.2z M12.8,12.8
	c-0.2-0.3-0.6-0.4-0.9-0.2c0,0-0.1,0.1-0.1,0.1l-0.7,0.7c-0.3,0.3-0.3,0.8-0.1,1.2c0.2,0.3,0.6,0.4,0.9,0.2c0,0,0.1-0.1,0.1-0.1
	l0.7-0.7C13.1,13.7,13.1,13.2,12.8,12.8z M22.4,6.7c0.1,0.2,0.1,0.5-0.1,0.6l-1.1,0.6c-0.2,0.1-0.4,0-0.5-0.2c0,0,0,0,0,0L18,2.3
	c-0.1-0.2-0.1-0.5,0.1-0.6l1.1-0.6c0.2-0.1,0.4,0,0.5,0.2c0,0,0,0,0,0L22.4,6.7z M3.3,7.6C3.3,7.9,3.1,8,2.9,7.9c0,0,0,0,0,0
	L1.7,7.5C1.5,7.4,1.4,7.2,1.5,7l2.1-5.7C3.6,1.1,3.9,1,4.1,1c0,0,0,0,0,0l1.1,0.4C5.4,1.5,5.5,1.8,5.4,2L3.3,7.6z M18,11.1L18,11.1
	c0,0.1-0.1,0.2-0.2,0.3c-0.1,0.2-0.3,0.3-0.5,0.3c-0.2,0-0.4-0.1-0.6-0.3l-1.9-2.3c0,0-0.1-0.1-0.1-0.1c-0.2,0-0.3,0.2-0.3,0.4
	c0,0,0,0.1,0,0.1l1.6,1.8c0.3,0.4,0.3,0.9,0,1.3c-0.1,0.1-0.3,0.2-0.5,0.2c-0.2,0-0.4-0.1-0.6-0.3l-1.8-2.1c0-0.1-0.1-0.1-0.1-0.1
	c-0.2,0-0.3,0.2-0.2,0.4c0,0,0,0.1,0.1,0.1l1.4,1.7c0.3,0.4,0.3,0.9,0,1.2c-0.1,0.1-0.3,0.2-0.5,0.2c-0.1,0-0.2,0-0.3-0.1
	c-0.1,0.2-0.1,0.3-0.3,0.4c0.2,0.1,0.4,0.2,0.5,0.2c0.3,0,0.6-0.1,0.8-0.4c0.2-0.3,0.3-0.6,0.4-0.9c0.2,0.1,0.4,0.2,0.6,0.2
	c0.3,0,0.6-0.2,0.8-0.4c0.2-0.3,0.3-0.6,0.3-0.9c0.2,0.1,0.4,0.1,0.6,0.2c0.3,0,0.7-0.2,0.9-0.4c0.2-0.2,0.3-0.5,0.3-0.7
	c0-0.1,0-0.2,0-0.3l-0.1,0.1L18,11.1z M5.8,9.6L5.8,9.6L5.8,9.6L6,9.5C5,8.5,4.4,7.7,4.4,7.7c0.9-2.4,1.9-5.4,1.9-5.4
	C6.5,2.6,6.8,2.8,7,2.9C7.2,2.9,7.4,3,7.6,3c0.1,0,0.1,0,0.2,0c0.6-0.1,1.1-0.4,1.6-0.7c0.3-0.2,0.7-0.4,1.2-0.4
	c0.2,0,0.4,0.1,0.5,0.2c0.2-0.1,0.3-0.2,0.4-0.3c0,0-0.1-0.1-0.1-0.1c-0.3-0.2-0.6-0.3-0.9-0.3c-0.5,0-1,0.2-1.4,0.5L9,1.9
	C8.6,2.2,8.2,2.4,7.7,2.5c0,0-0.1,0-0.1,0c-0.1,0-0.3,0-0.4-0.1C7.1,2.3,6.9,2.2,6.8,2.1C6.8,2,6.6,1.9,6.5,1.8c0,0-0.1,0-0.1,0
	C6.2,1.8,6,2,5.9,2.2c0,0-1,3-1.9,5.3C3.9,7.7,4,7.9,4.1,8.1c0,0,0.6,0.8,1.5,1.8C5.7,9.7,5.8,9.6,5.8,9.6L5.8,9.6z"/>
</svg>
