<?xml version="1.0" encoding="utf-8"?>
<!-- Generator: Adobe Illustrator 19.2.1, SVG Export Plug-In . SVG Version: 6.00 Build 0)  -->
<svg version="1.1" id="Layer_1" xmlns="http://www.w3.org/2000/svg" xmlns:xlink="http://www.w3.org/1999/xlink" x="0px" y="0px"
	 width="16px" height="16px" viewBox="0 0 16 16" style="enable-background:new 0 0 16 16;" xml:space="preserve">
<path d="M2.8,1h10.4c1,0,1.8,0.7,1.8,1.7c0,0,0,0.1,0,0.1v10.4c0,1-0.7,1.8-1.7,1.8c0,0-0.1,0-0.1,0H2.8c-1,0-1.8-0.7-1.8-1.7
	c0,0,0-0.1,0-0.1V2.8C1,1.8,1.7,1,2.8,1C2.7,1,2.8,1,2.8,1L2.8,1z M11.2,2.6c-0.3,0-0.6,0.3-0.6,0.6v1.5c0,0.3,0.3,0.6,0.6,0.6h1.6
	c0.3,0,0.6-0.3,0.6-0.6V3.2c0-0.3-0.3-0.6-0.6-0.6H11.2L11.2,2.6z M13.4,6.9h-1.2c0.1,0.4,0.2,0.8,0.2,1.2c-0.1,2.4-2.1,4.3-4.5,4.2
	c-2.3-0.1-4.1-1.9-4.2-4.2c0-0.4,0.1-0.8,0.2-1.2H2.6v5.9c0,0.3,0.2,0.6,0.6,0.6h9.7c0.3,0,0.6-0.2,0.6-0.6L13.4,6.9L13.4,6.9z
	 M8,5.2c-1.5,0-2.7,1.3-2.6,2.8c0,1.5,1.3,2.7,2.8,2.6c1.5,0,2.6-1.3,2.6-2.7C10.8,6.4,9.5,5.2,8,5.2L8,5.2z"/>
</svg>
