<?xml version="1.0" encoding="utf-8"?>
<!-- Generator: Adobe Illustrator 19.2.1, SVG Export Plug-In . SVG Version: 6.00 Build 0)  -->
<svg version="1.1" id="Layer_1" xmlns="http://www.w3.org/2000/svg" xmlns:xlink="http://www.w3.org/1999/xlink" x="0px" y="0px"
	 width="12.2px" height="16px" viewBox="0 0 12.2 16" enable-background="new 0 0 12.2 16" xml:space="preserve">
<path d="M2.5,15c11.3,0.8,8.7-14,8.7-14C10.9,5.3-0.7,5.3,0.9,13.8v-0.1C1,13.5,1,13.3,1.1,13.1c0.2-0.4,0.5-0.8,0.8-1.1
	c0.3-0.3,0.7-0.6,1.1-0.9c0.4-0.3,0.8-0.5,1.1-0.7c0.4-0.2,0.8-0.4,1.1-0.7c0.4-0.2,0.7-0.4,1-0.7c0.3-0.2,0.6-0.5,0.9-0.7
	c0.3-0.2,0.5-0.5,0.7-0.7C8,7.4,8.2,7.1,8.3,6.9c0-0.1,0.1-0.1,0.1-0.2s0.1-0.1,0.1-0.2c0.1-0.1,0.1-0.2,0.2-0.3
	C8.8,6,8.9,5.9,8.9,5.8C8.9,5.7,9,5.7,9,5.7s0,0,0.1,0l0,0c0,0,0,0.1,0,0.2S9,6.1,9,6.3C8.9,6.5,8.9,6.7,8.7,7
	C8.6,7.2,8.4,7.5,8.3,7.8C8.1,8.1,7.9,8.4,7.6,8.7C7.3,9,7,9.3,6.7,9.6c-0.3,0.3-0.7,0.6-1,0.8c-0.4,0.3-0.7,0.5-1.1,0.8
	c-0.4,0.2-0.7,0.5-1,0.7c-0.3,0.3-0.6,0.5-0.9,0.8c-0.1,0.1-0.1,0.2-0.2,0.2L2.4,13c-0.3,0.3-0.6,0.7-0.8,1.1
	c-0.1,0.2-0.2,0.4-0.2,0.6C1.5,14.7,2,14.9,2.5,15z"/>
</svg>
