<?xml version="1.0" encoding="utf-8"?>
<!-- Generator: Adobe Illustrator 19.2.1, SVG Export Plug-In . SVG Version: 6.00 Build 0)  -->
<svg version="1.1" id="Layer_1" xmlns="http://www.w3.org/2000/svg" xmlns:xlink="http://www.w3.org/1999/xlink" x="0px" y="0px"
	 width="12.8px" height="16px" viewBox="0 0 12.8 16" enable-background="new 0 0 12.8 16" xml:space="preserve">
<path d="M6.4,1C6.4,1,6.4,1,6.4,1C3.3,1,0.8,3.5,0.8,6.5c0,3.1,5.3,8.5,5.3,8.5S12,9.6,12,6.5c0,0,0,0,0,0C12,3.5,9.5,1,6.4,1z
	 M6.4,8c-1,0-1.8-0.8-1.8-1.7c0,0,0,0,0,0c0-1,0.8-1.7,1.7-1.8c0,0,0,0,0,0c1,0,1.8,0.8,1.8,1.7S7.3,8,6.4,8z"/>
</svg>
