<?xml version="1.0" encoding="utf-8"?>
<!-- Generator: Adobe Illustrator 19.2.1, SVG Export Plug-In . SVG Version: 6.00 Build 0)  -->
<svg version="1.1" id="Capa_1" xmlns="http://www.w3.org/2000/svg" xmlns:xlink="http://www.w3.org/1999/xlink" x="0px" y="0px"
	 width="16px" height="10.7px" viewBox="0 0 16 10.7" enable-background="new 0 0 16 10.7" xml:space="preserve">
<g>
	<path d="M8,6.3L8,6.3c0.1,0,0.2,0,0.3-0.1l0,0c0,0,0,0,0,0L8.6,6L15,0.7c0,0,0,0-0.1,0H1.1c0,0,0,0,0,0l6.7,5.5
		C7.8,6.2,7.9,6.3,8,6.3z M1,1.4v7.8l4.8-3.9L1,1.4z M10.2,5.4L15,9.2V1.4L10.2,5.4z M8.7,6.6C8.5,6.8,8.3,6.9,8,6.9
		c-0.3,0-0.5-0.1-0.7-0.2L6.2,5.7L1,9.9v0C1,10,1,10,1.1,10h13.9c0,0,0.1,0,0.1-0.1v0L9.8,5.7L8.7,6.6z"/>
</g>
</svg>
