<?xml version="1.0" encoding="utf-8"?>
<!-- Generator: Adobe Illustrator 19.2.1, SVG Export Plug-In . SVG Version: 6.00 Build 0)  -->
<svg version="1.1" id="Layer_1" xmlns="http://www.w3.org/2000/svg" xmlns:xlink="http://www.w3.org/1999/xlink" x="0px" y="0px"
	 width="16px" height="16px" viewBox="0 0 16 16" enable-background="new 0 0 16 16" xml:space="preserve">
<path id="icon_contact" d="M6.1,4.8l-3-3l0.4-0.4c0.5-0.5,1.3-0.5,1.7,0l1.3,1.3c0.5,0.5,0.5,1.3,0,1.7L6.1,4.8z M11.6,9.6
	c0.5-0.5,1.3-0.5,1.7,0l1.3,1.3c0.5,0.5,0.5,1.3,0,1.7L14.3,13l-3-3L11.6,9.6z M1.9,2.8l0.3-0.3l3,3L4.7,6.1c-0.2,0.2-0.2,0.4,0,0.6
	l4.6,4.6c0.2,0.2,0.4,0.2,0.6,0l0.5-0.5l3,3l-0.3,0.3c-0.7,0.6-1.6,0.9-2.5,0.9c-1.3,0-3.5-0.6-6.3-3.4C-1.2,6.1,1.8,3,1.9,2.8z"/>
</svg>
