<?xml version="1.0" encoding="utf-8"?>
<!-- Generator: Adobe Illustrator 19.2.1, SVG Export Plug-In . SVG Version: 6.00 Build 0)  -->
<svg version="1.1" id="Layer_1" xmlns="http://www.w3.org/2000/svg" xmlns:xlink="http://www.w3.org/1999/xlink" x="0px" y="0px"
	 width="12.7px" height="16px" viewBox="0 0 12.7 16" enable-background="new 0 0 12.7 16" xml:space="preserve">
<path id="p" d="M6.7,1C2.8,1,0.8,3.7,0.8,6c0,1.4,0.5,2.6,1.7,3.1c0.1,0.1,0.3,0,0.4-0.1c0,0,0-0.1,0-0.1c0-0.1,0.1-0.5,0.2-0.6
	c0.1-0.2,0-0.3-0.1-0.4c-0.4-0.4-0.6-1-0.5-1.6c0-2.1,1.7-3.9,3.9-3.9c0.1,0,0.1,0,0.2,0c2.2,0,3.4,1.3,3.4,3.1
	c0,2.3-1.1,4.3-2.6,4.3C6.6,9.8,6,9.3,5.9,8.6c0-0.1,0-0.3,0-0.4c0.3-0.9,0.6-1.9,0.7-2.9c0.1-0.6-0.4-1.1-1-1.2c0,0-0.1,0-0.2,0
	C4.7,4.1,4,5,4,6.2c0,0.4,0.1,0.9,0.3,1.3c0,0-0.9,3.7-1.1,4.4c-0.2,1-0.2,2,0,3.1C3.2,15,3.2,15,3.3,15c0,0,0.1,0,0.1,0
	c0.6-0.8,1.2-1.7,1.5-2.6C5,12,5.4,10.1,5.4,10.1c0.5,0.7,1.2,1,2,1c2.7,0,4.5-2.4,4.5-5.5C11.9,3.2,9.8,1,6.7,1z"/>
</svg>
