<?xml version="1.0" encoding="utf-8"?>
<!-- Generator: Adobe Illustrator 19.2.1, SVG Export Plug-In . SVG Version: 6.00 Build 0)  -->
<svg version="1.1" id="All_glyphs" xmlns="http://www.w3.org/2000/svg" xmlns:xlink="http://www.w3.org/1999/xlink" x="0px" y="0px"
	 width="16px" height="16px" viewBox="0 0 16 16" enable-background="new 0 0 16 16" xml:space="preserve">
<g>
	<path d="M14.7,12.8l-3.3-3.3c0.5-0.8,0.8-1.8,0.8-2.8c0-3-2.6-5.7-5.7-5.7C3.5,1,1,3.5,1,6.5s2.6,5.7,5.7,5.7c1,0,1.9-0.3,2.8-0.7
		l3.4,3.4c0.3,0.3,0.9,0.3,1.2,0l0.8-0.8C15.1,13.6,15,13.2,14.7,12.8z M2.7,6.5c0-2.1,1.7-3.8,3.8-3.8c2.1,0,4,1.9,4,4
		c0,2.1-1.7,3.8-3.8,3.8C4.6,10.4,2.7,8.6,2.7,6.5z"/>
</g>
</svg>
