<?xml version="1.0" encoding="utf-8"?>
<!-- Generator: Adobe Illustrator 19.2.1, SVG Export Plug-In . SVG Version: 6.00 Build 0)  -->
<svg version="1.1" id="Layer_1" xmlns="http://www.w3.org/2000/svg" xmlns:xlink="http://www.w3.org/1999/xlink" x="0px" y="0px"
	 width="16px" height="13.7px" viewBox="0 0 16 13.7" style="enable-background:new 0 0 16 13.7;" xml:space="preserve">
<path d="M7.5,11.4V2.3c0-0.1-0.1-0.3-0.2-0.4C7.2,1.8,7.1,1.7,6.9,1.7c-0.1,0-0.3,0.1-0.4,0.2L3.7,4.7H1.5c-0.1,0-0.3,0.1-0.4,0.2
	C1.1,4.9,1,5.1,1,5.2v3.2c0,0.1,0.1,0.3,0.2,0.4C1.3,8.9,1.4,9,1.5,9h2.2l2.8,2.8C6.7,11.9,6.8,12,6.9,12c0.1,0,0.3-0.1,0.4-0.2
	C7.4,11.7,7.5,11.6,7.5,11.4z M10.7,6.8c0-0.4-0.1-0.8-0.4-1.2C10.1,5.3,9.8,5,9.4,4.9c-0.1,0-0.1,0-0.2,0C9,4.8,8.9,4.9,8.8,5
	C8.7,5.1,8.6,5.2,8.6,5.4c0,0.1,0,0.2,0.1,0.3C8.8,5.7,8.9,5.8,9,5.9S9.2,6,9.3,6.1c0.1,0.1,0.2,0.2,0.2,0.3
	c0.1,0.1,0.1,0.3,0.1,0.5s0,0.4-0.1,0.5C9.4,7.4,9.4,7.5,9.3,7.6C9.2,7.7,9.1,7.7,9,7.8S8.8,7.9,8.7,8C8.7,8.1,8.6,8.2,8.6,8.3
	c0,0.2,0.1,0.3,0.2,0.4C8.9,8.8,9,8.9,9.2,8.9c0.1,0,0.2,0,0.2,0c0.4-0.2,0.7-0.4,0.9-0.8C10.6,7.7,10.7,7.3,10.7,6.8z M12.8,6.8
	c0-0.9-0.2-1.7-0.7-2.4c-0.5-0.7-1.1-1.3-1.9-1.6c-0.1,0-0.1,0-0.2,0C9.9,2.8,9.7,2.9,9.6,3C9.5,3.1,9.5,3.2,9.5,3.4
	c0,0.2,0.1,0.4,0.3,0.5c0.3,0.2,0.5,0.3,0.6,0.4c0.4,0.3,0.7,0.7,1,1.1c0.2,0.5,0.3,0.9,0.3,1.5s-0.1,1-0.3,1.5
	c-0.2,0.5-0.6,0.8-1,1.1c-0.1,0.1-0.3,0.2-0.6,0.4c-0.2,0.1-0.3,0.3-0.3,0.5c0,0.1,0.1,0.3,0.2,0.4c0.1,0.1,0.2,0.2,0.4,0.2
	c0.1,0,0.1,0,0.2,0c0.8-0.3,1.4-0.9,1.9-1.6C12.6,8.5,12.8,7.7,12.8,6.8z M15,6.8c0-1.3-0.4-2.5-1.1-3.6s-1.7-1.9-2.8-2.4
	c-0.1,0-0.1,0-0.2,0c-0.1,0-0.3,0.1-0.4,0.2c-0.1,0.1-0.2,0.2-0.2,0.4c0,0.2,0.1,0.4,0.3,0.5c0,0,0.1,0.1,0.2,0.1
	C10.9,2,11,2,11,2.1c0.3,0.1,0.5,0.3,0.7,0.4C12.4,3,13,3.6,13.3,4.4s0.6,1.6,0.6,2.4s-0.2,1.7-0.6,2.4c-0.4,0.8-0.9,1.4-1.6,1.9
	c-0.2,0.1-0.4,0.3-0.7,0.4c0,0-0.1,0.1-0.2,0.1s-0.2,0.1-0.2,0.1c-0.2,0.1-0.3,0.3-0.3,0.5c0,0.1,0.1,0.3,0.2,0.4
	c0.1,0.1,0.2,0.2,0.4,0.2c0.1,0,0.1,0,0.2,0c1.2-0.5,2.1-1.3,2.8-2.4S15,8.1,15,6.8z"/>
</svg>
