<?xml version="1.0" encoding="utf-8"?>
<!-- Generator: Adobe Illustrator 19.2.1, SVG Export Plug-In . SVG Version: 6.00 Build 0)  -->
<svg version="1.1" id="Layer_1" xmlns="http://www.w3.org/2000/svg" xmlns:xlink="http://www.w3.org/1999/xlink" x="0px" y="0px"
	 width="16px" height="12.8px" viewBox="0 0 16 12.8" enable-background="new 0 0 16 12.8" xml:space="preserve">
<path d="M15,2.1c-0.5,0.2-1.1,0.4-1.7,0.4c0.6-0.4,1-0.9,1.3-1.6c-0.6,0.3-1.2,0.6-1.8,0.7c-0.5-0.6-1.3-0.9-2.1-0.9
	c-1.6,0-2.9,1.3-2.9,2.8c0,0.2,0,0.4,0.1,0.6C5.6,4.2,3.4,3.1,2,1.3C1.7,1.8,1.6,2.2,1.6,2.7c0,0.9,0.5,1.8,1.3,2.4
	C2.4,5.1,2,5,1.6,4.7v0c0,1.4,1,2.5,2.3,2.8C3.6,7.6,3.4,7.7,3.1,7.7c-0.2,0-0.4,0-0.5-0.1c0.4,1.2,1.5,2,2.7,2
	c-1,0.8-2.3,1.2-3.6,1.2c-0.2,0-0.5,0-0.7,0C2.3,11.6,3.8,12,5.4,12c4.4,0.1,8.1-3.5,8.2-7.9c0,0,0-0.1,0-0.1l0-0.4
	C14.1,3.2,14.6,2.7,15,2.1L15,2.1L15,2.1z"/>
</svg>
