<?xml version="1.0" encoding="utf-8"?>
<!-- Generator: Adobe Illustrator 19.2.1, SVG Export Plug-In . SVG Version: 6.00 Build 0)  -->
<svg version="1.1" id="All_glyphs" xmlns="http://www.w3.org/2000/svg" xmlns:xlink="http://www.w3.org/1999/xlink" x="0px" y="0px"
	 width="16px" height="15.3px" viewBox="0 0 16 15.3" enable-background="new 0 0 16 15.3" xml:space="preserve">
<g>
	<path d="M12,11c-1.8-0.7-2.4-1.2-2.4-2.4c0-0.7,0.6-0.5,0.8-1.8c0.1-0.6,0.6,0,0.7-1.3c0-0.5-0.3-0.6-0.3-0.6s0.1-0.7,0.2-1.3
		C11,2.8,10.5,1,8,1S5,2.8,5,3.5c0.1,0.6,0.2,1.3,0.2,1.3S5,4.9,5,5.4c0.1,1.3,0.6,0.7,0.7,1.3C5.9,8,6.5,7.8,6.5,8.5
		c0,1.2-0.6,1.8-2.4,2.4c-1.8,0.7-3,1.4-3,1.8c0,0.5,0,1.6,0,1.6h7h7c0,0,0-1.1,0-1.6C15,12.3,13.8,11.6,12,11z"/>
</g>
</svg>
