<?xml version="1.0" encoding="utf-8"?>
<!-- Generator: Adobe Illustrator 19.2.1, SVG Export Plug-In . SVG Version: 6.00 Build 0)  -->
<svg version="1.1" id="Layer_1" xmlns="http://www.w3.org/2000/svg" xmlns:xlink="http://www.w3.org/1999/xlink" x="0px" y="0px"
	 width="39.6px" height="16px" viewBox="0 0 39.6 16" enable-background="new 0 0 39.6 16" xml:space="preserve">
<path id="yt" d="M37,5.1c-0.1-0.6-0.1-1.3-0.2-1.9c-0.1-0.5-0.4-1-0.8-1.4c-0.8-0.6-1.6-0.6-2.6-0.7c-0.3,0-0.7,0-1-0.1
	c-1.4,0-2.8-0.1-4.2-0.1h-3.4c-0.3,0-0.6,0-0.8,0c-0.7,0-1.4,0-2.1,0.1c-0.3,0-0.7,0-1,0c-0.4,0-0.7,0-1,0.1c-0.6,0-1.2,0.1-1.8,0.4
	c-0.4,0.3-0.8,0.7-1,1.2c-0.4,0.9-0.5,4.8-0.5,6c0,1.3,0.1,2.7,0.4,4c0.2,1.1,1.2,2,2.4,2c2.2,0.2,4.1,0.2,6.2,0.2h0.1h2.3
	c0.3,0,0.5,0,0.8,0c0.4,0,0.7,0,1.1,0c1,0,2.1-0.1,3.1-0.1c0.4,0,0.7,0,1,0c0.6,0,1.2-0.1,1.7-0.4c1.1-0.7,1.2-1.8,1.3-3
	c0.1-0.7,0.1-1.4,0.2-2C37.2,7.9,37.1,6.5,37,5.1z M22.5,4.5l-1.5,0v7.8l-1.3,0c-0.1-0.2,0-3.4,0-3.9V4.5l-1.4,0c0,0,0,0,0-0.1V3.3
	l4.2,0L22.5,4.5L22.5,4.5L22.5,4.5z M26.2,12.3H25v-0.7c-0.1,0-0.3,0.3-0.4,0.4l-0.3,0.2c-0.1,0.1-0.3,0.1-0.4,0.2
	c-0.2,0.1-0.4,0.1-0.5,0c-0.3,0-0.6-0.3-0.6-0.6c-0.1-0.4-0.1-0.8-0.1-1.2v-5h1.2v5.1c0,0.1,0,0.1,0,0.2c0,0.2,0,0.6,0.5,0.4
	c0.2-0.1,0.5-0.3,0.6-0.6V5.6h1.2L26.2,12.3L26.2,12.3z M30.8,10.6l-0.1,0.8c0,0.2-0.1,0.4-0.2,0.6c-0.3,0.5-1,0.6-1.5,0.3
	c-0.1,0-0.1-0.1-0.2-0.2l-0.4-0.4v0.6l-1.2,0c0.1-0.2,0-4,0-4.5c0-0.3,0-4.4,0-4.5h1.2v3C28.7,6,29,5.7,29.4,5.6
	c0.4-0.2,0.9,0,1.1,0.4c0.2,0.3,0.2,0.7,0.2,1c0,0.1,0,0.2,0,0.4L30.8,10.6L30.8,10.6L30.8,10.6z M33.2,11.3
	c0.2,0.1,0.9,0.3,0.9-0.6l0-0.6h1.2c0,0.4,0,0.8-0.1,1.2C35,12.2,34,12.7,33,12.4c-0.7-0.2-1.2-0.8-1.2-1.5
	c-0.1-0.4-0.1-0.8-0.1-1.2V8.4c0-1,0-2.3,1.1-2.7c0.9-0.4,1.9,0,2.3,0.8c0,0.1,0.1,0.2,0.1,0.3c0.1,0.8,0.2,1.6,0.1,2.4
	c-0.1,0.1-2.1,0-2.4,0v1.2C32.9,10.7,33,11,33.2,11.3z M5.5,12.4c0-1.2,0-2.5,0-3.7c0-0.2,0.3-1.1,0.4-1.3l1.2-4.1l-1.4,0
	c0,0,0,0,0,0L5.6,3.9c0,0.2-0.2,0.8-0.2,0.9c0,0.2-0.4,1.4-0.4,1.8l0,0.2c0-0.1-0.6-2.4-0.7-2.6C4.1,3.9,4,3.4,3.9,3.2H2.5
	c0,0.2,0.7,1.9,0.8,2.3s0.3,0.8,0.4,1.1l0.3,1.2C4,8.1,4.1,8.3,4.1,8.5c0.1,0.5,0,3.5,0,3.8c0,0.1,0.2,0.1,0.3,0.1
	C4.8,12.4,5.2,12.4,5.5,12.4L5.5,12.4L5.5,12.4z M13.9,11.7l0,0.7h1.2c0-0.1,0-5.9,0-6.8h-1.3c0,0,0,0.1,0,0.2c0,1.7,0,3.3,0,4.9
	c-0.1,0.2-0.3,0.3-0.5,0.4c-0.1,0.1-0.2,0.1-0.4,0.1c-0.1,0-0.2-0.2-0.2-0.3c-0.1-0.2,0-4.6,0-5.4h-1.3c0,0,0,0,0,0c0,0.5,0,1,0,1.4
	v4.2c0,0.4,0.1,0.8,0.4,1c0.2,0.1,0.4,0.2,0.5,0.1c0.2,0,0.4-0.1,0.6-0.1C13.5,12.2,13.7,12,13.9,11.7L13.9,11.7L13.9,11.7z
	 M8.4,10.7c0-0.1,0-2.7,0-2.9C8.3,7.4,8.4,7,8.7,6.7c0.2-0.1,0.4-0.1,0.6,0.1c0.1,0.1,0.2,0.3,0.2,0.5c0,0.1,0,2.7,0,2.9
	c0,0.3,0,0.9-0.3,1.1C8.7,11.5,8.4,11.1,8.4,10.7L8.4,10.7L8.4,10.7z M8.6,5.5C6.8,5.8,7.1,7.8,7.1,9.3c-0.1,0.8,0,1.6,0.3,2.4
	c0.4,0.6,1.1,0.9,1.8,0.8c0.7-0.1,1.2-0.6,1.4-1.3c0.1-0.8,0.2-1.7,0.1-2.6c0.1-0.8,0-1.6-0.3-2.4C10,5.7,9.3,5.3,8.6,5.5L8.6,5.5z
	 M28.9,6.6c-0.6,0.2-0.4,0.4-0.4,1v3c0,0.1,0,0.3,0,0.4c0.1,0.3,0.4,0.4,0.7,0.4c0.4-0.1,0.4-0.7,0.4-1.1V8.8c0-0.5,0-1,0-1.5
	C29.6,6.9,29.4,6.5,28.9,6.6L28.9,6.6L28.9,6.6z M32.9,8.2h1.2c0.1-0.5,0-1-0.2-1.4c-0.1-0.1-0.3-0.2-0.4-0.2c-0.6,0-0.6,0.6-0.6,1
	C32.9,7.8,32.9,8,32.9,8.2L32.9,8.2z"/>
</svg>
